<?xml version="1.0" encoding="UTF-8"?><svg id="_레이어_1" xmlns="http://www.w3.org/2000/svg" viewBox="0 0 79.32 15.59"><defs><style>.cls-1{fill:#fff;}.cls-2{fill:#231815;}</style></defs><path class="cls-2" d="m12.9,3.61h-1.35V.04s-2.12,0-2.12,0v8.36c0,.58.48,1.06,1.06,1.06s1.06-.48,1.06-1.06v-3.24h1.35c.43,0,.78-.35.78-.77s-.35-.78-.78-.78Z"/><path class="cls-2" d="m26.79,12.21h-5.1v-2.44h3.2c.45,0,.81-.36.81-.81s-.36-.81-.81-.81h-7.59v-2.14h7.46c.44,0,.8-.36.8-.8s-.36-.8-.8-.8h-7.46v-2.16h7.59c.45,0,.81-.36.81-.81s-.36-.81-.81-.81h-9.38c-.18,0-.3.04-.37.11-.07.07-.1.19-.1.36v8.19c0,.18.03.31.09.37.06.07.18.1.36.1h3.88v2.44h-5.89s0,1.62,0,1.62h13.3c.45,0,.81-.36.81-.81s-.36-.81-.81-.81Z"/><path class="cls-2" d="m11.12,10.11H1.11s0,1.55,0,1.55h8.25v2.78c0,.6.49,1.09,1.09,1.09s1.09-.49,1.09-1.09v-3.9c0-.16-.03-.27-.1-.33-.06-.06-.17-.09-.33-.09Z"/><path class="cls-2" d="m39.47,10.2c.58,0,1.06-.48,1.06-1.06V.04s-2.12,0-2.12,0v9.1c0,.59.48,1.06,1.06,1.06Z"/><path class="cls-2" d="m2.08,8.81h.07c.32,0,.49,0,.73,0,.15,0,.27,0,.37-.01.19,0,.4-.01.61-.02.4,0,.75-.02,1.09-.04.15-.01.29-.02.43-.03h.09c.61-.05,1.21-.09,1.79-.15.24-.02.47-.05.69-.07.09-.01.18-.02.26-.03h.06c.36-.06.63-.37.63-.74,0-.41-.33-.74-.74-.74-.03,0-.06,0-.09,0l-.83.09h0c-2.22.2-4.12.24-5.06.24h-.07v-1.91h4.9c.16,0,.27-.03.33-.09.06-.06.09-.17.09-.34V.97c0-.16-.03-.27-.1-.33-.06-.06-.17-.09-.33-.09H0s0,1.52,0,1.52h5.34v1.88H.43c-.17,0-.28.03-.34.09C.03,4.1,0,4.21,0,4.37v4.02c0,.17.03.28.09.34.06.06.17.09.34.09h1.1s.2,0,.54,0Z"/><path class="cls-2" d="m37.33,7.67c0-.42-.34-.77-.77-.77h-.94l.03-.08c.04-.1.06-.2.06-.28l.29-4.34h.55c.42,0,.77-.34.77-.77s-.34-.77-.77-.77h-8.08c-.42,0-.77.34-.77.77,0,.42.34.77.77.77h.55s.29,4.34.29,4.34c0,.09.03.18.06.28l.03.08h-.94c-.42,0-.77.34-.77.77s.34.77.77.77h8.08c.42,0,.77-.34.77-.77Zm-3.64-.85l.03.08h-2.38s.03-.08.03-.08c.05-.14.07-.28.06-.42l-.29-4.19h2.78s-.28,4.19-.28,4.19c0,.14.01.29.06.42Z"/><path class="cls-2" d="m36.96,13.51l.1.07c1.02.76,1.99,1.19,2.36,1.36.14.06.23.1.28.12.19.09.37.12.56.09.41-.07.71-.43.71-.85,0-.33-.19-.64-.49-.78-2.42-1.09-3.41-2.4-3.78-3.08-.03-.06-.06-.12-.09-.18-.11-.19-.25-.35-.43-.49-.33-.27-.76-.41-1.19-.41s-.86.15-1.19.41c-.17.13-.31.29-.42.47-.04.07-.08.14-.11.21-.46.83-1.49,2.04-3.78,3.06-.3.14-.49.45-.49.78,0,.42.3.78.71.85.19.03.37,0,.54-.08,0,0,0,0,.02,0,.04-.02.14-.05.27-.12.58-.26,1.45-.68,2.36-1.36l.05-.03s.11-.09.2-.16l.07-.06s.1-.08.16-.13l.06-.05c.41-.35,1-.91,1.49-1.56l.04-.05.04.05c.49.66,1.09,1.22,1.5,1.57l.02.02c.09.07.16.14.23.19l-.02.05.03-.04c.07.06.13.1.18.14Z"/><path class="cls-2" d="m79.32,8.55V0s-28.55,0-28.55,0c0,0-7.04.05-7.04,7.04v8.55s28.55,0,28.55,0c0,0,7.04-.05,7.04-7.04Z"/><path class="cls-1" d="m51.32,3.83l3.31,2.21.71-.7-4.24-2.85s-1.24,2.03-3.81,2.71l.49.84c1.59-.44,2.81-1.26,3.55-2.21Z"/><path class="cls-1" d="m58.81,7.46h5.18c.25,0,.45-.2.45-.45,0-.25-.2-.45-.45-.45h0s-4.86,0-4.86,0c-.24,0-.36-.12-.36-.35v-.78h5.33s0-2.83,0-2.83h-6.4s0,.88,0,.88h5.33v1.05h-5.33s0,1.8,0,1.8c0,.76.37,1.14,1.11,1.14Z"/><path class="cls-1" d="m73.42,9.71c0,.3.24.54.54.54s.54-.24.54-.54V1.9s-1.08,0-1.08,0v1.89h-1.88s0,.9,0,.9h1.88v.96h-1.88s0,.9,0,.9h1.88v3.16Z"/><polygon class="cls-1" points="70.8 7.89 70.93 8.1 71 8.05 71.32 7.85 71.76 7.58 71.65 7.39 71.52 7.18 69.49 3.73 68.74 2.46 68 3.73 65.96 7.18 65.84 7.39 65.73 7.58 66.17 7.85 66.49 8.05 66.55 8.1 66.68 7.89 68.74 4.55 70.8 7.89"/><path class="cls-1" d="m54.69,12.01h-5.23c-.23,0-.33-.11-.33-.32v-.53h5.5s0-2.52,0-2.52h-6.58s0,.88,0,.88h5.53v.79h-5.53s0,1.43,0,1.43c0,.76.38,1.15,1.14,1.15h5.5c.24,0,.44-.2.44-.44s-.2-.44-.44-.44Z"/><path class="cls-1" d="m55.62,6.94h-3.75v-1.28s-1.06,0-1.06,0v1.28h-4s0,.9,0,.9h8.81c.25,0,.45-.2.45-.45,0-.25-.2-.45-.45-.45Z"/><path class="cls-1" d="m65.41,8.58h-8.98s0,.94,0,.94h4.03v3.03h0c0,.3.24.54.54.54s.54-.24.54-.54v-3.03h3.85c.26,0,.47-.21.47-.47,0-.26-.21-.47-.47-.47Z"/><path class="cls-1" d="m74.32,11.99h-4.99c-.24,0-.36-.13-.36-.37v-2.27s-1.08,0-1.08,0v2.4c0,.74.37,1.12,1.12,1.12h5.29c.25,0,.44-.2.44-.44s-.2-.44-.44-.44Z"/></svg>