<?xml version="1.0" encoding="UTF-8"?><svg xmlns="http://www.w3.org/2000/svg" viewBox="0 0 78.65 28.77"><defs><style>.cls-1,.cls-2{fill:#231815;}.cls-1,.cls-3{mix-blend-mode:multiply;}.cls-4{fill:#fff;}.cls-5{isolation:isolate;}.cls-6{fill:#e60012;}</style></defs><g class="cls-5"><g id="_레이어_1"><path class="cls-6" d="m61.12,0c-7.94,0-14.38,6.44-14.38,14.38s6.44,14.38,14.38,14.38,14.38-6.44,14.38-14.38S69.06,0,61.12,0Z"/><path class="cls-4" d="m58.44,9.2c0,.56-.45,1.01-1.01,1.01h-3.52v3.8h2.68c.56,0,1.01.45,1.01,1.01s-.45,1.01-1.01,1.01h-2.68v4.35c0,.81-.66,1.46-1.47,1.46s-1.46-.66-1.46-1.46h0v-12.18h6.45c.56,0,1.01.45,1.01,1.01Zm1.12,11.18c0,.81.66,1.46,1.47,1.46s1.46-.66,1.46-1.46v-12.18h-2.93v12.18Zm4.33-12.18v2.02h2.62v10.16c0,.81.66,1.46,1.47,1.46s1.46-.66,1.46-1.46v-10.16h2.63v-2.02h-8.18Z"/><path class="cls-1" d="m40.42,7.9c-2.61,0-3.99,1.26-3.99,3.66v6.61c0,1.3.42,2.25,1.3,2.93.67.5,1.57.75,2.69.75s2.03-.24,2.71-.75c.87-.67,1.28-1.6,1.28-2.93v-6.61c0-2.39-1.38-3.66-3.99-3.66Zm1.33,10.36c0,1.15-.36,1.58-1.33,1.58s-1.33-.43-1.33-1.58v-6.8c0-1.15.35-1.56,1.33-1.56s1.33.41,1.33,1.56v6.8Zm-34.16,2.38c0,.58-.47,1.05-1.05,1.05H1c-.56,0-1-.35-1-.81v-12.68h2.66v11.38h3.88c.58,0,1.05.47,1.05,1.05Zm19.9-12.45h8.11v2.01h-2.76v10.32c0,.73-.59,1.32-1.32,1.32s-1.32-.59-1.32-1.32v-10.32h-2.72v-2.01Zm-.6,3.36v.68h-2.66v-.78c0-1.12-.37-1.56-1.3-1.56s-1.33.42-1.33,1.56v6.82c0,1.14.36,1.56,1.33,1.56s1.3-.44,1.3-1.56v-.78h2.66v.68c0,1.32-.44,2.31-1.3,2.93-.69.48-1.59.73-2.66.73s-1.99-.24-2.68-.73c-.87-.63-1.33-1.64-1.33-2.93v-6.63c0-1.29.46-2.3,1.33-2.93.69-.49,1.59-.73,2.68-.73s1.97.24,2.66.73c.87.63,1.31,1.61,1.31,2.93Zm-13.79-3.66c-.66,0-1.25.44-1.43,1.07l-3.76,12.72h2.54l.6-2.19h4.09l.6,2.19h2.55l-3.75-12.72c-.19-.64-.77-1.07-1.43-1.07Zm-1.51,9.6l1.44-5.27.06-.31h.01l.06.31,1.43,5.27h-3Z"/><g class="cls-3"><path class="cls-2" d="m76.91,6.59c.27-.09.47-.29.47-.67,0-.56-.42-.72-.86-.72h-.86v2.23h.48v-.78h.26l.53.78h.55l-.58-.84Zm-.36-.32h-.41v-.69h.41c.16,0,.35.07.35.34,0,.29-.19.35-.35.35Z"/><path class="cls-2" d="m76.46,8.48c-1.2,0-2.18-.98-2.18-2.18s.98-2.18,2.18-2.18,2.18.98,2.18,2.18-.98,2.18-2.18,2.18Zm0-3.93c-.96,0-1.75.78-1.75,1.75s.79,1.75,1.75,1.75,1.75-.78,1.75-1.75-.78-1.75-1.75-1.75Z"/></g></g></g></svg>