<?xml version="1.0" encoding="UTF-8"?><svg id="_레이어_1" xmlns="http://www.w3.org/2000/svg" viewBox="0 0 77.41 22.88"><defs><style>.cls-1{fill:#fff;}.cls-2{fill:#e50012;}.cls-3{fill:#231815;}</style></defs><path class="cls-3" d="m34.15,4.43c-2.2,0-3.37,1.07-3.37,3.09v5.58c0,1.1.36,1.9,1.1,2.47.56.42,1.33.63,2.27.63s1.72-.21,2.29-.63c.73-.56,1.08-1.35,1.08-2.47v-5.58c0-2.02-1.17-3.09-3.37-3.09Zm1.12,8.76c0,.97-.3,1.33-1.12,1.33s-1.12-.36-1.12-1.33v-5.75c0-.97.29-1.32,1.12-1.32s1.12.34,1.12,1.32v5.75Zm-28.86,2.01c0,.49-.4.89-.89.89H.85c-.48,0-.85-.3-.85-.68V4.69h2.25v9.62h3.28c.49,0,.89.4.89.89ZM23.23,4.68h6.85v1.7h-2.33v8.72c0,.61-.5,1.11-1.11,1.11s-1.11-.5-1.11-1.11V6.38h-2.3v-1.7Zm-.5,2.84v.58h-2.25v-.66c0-.95-.31-1.32-1.1-1.32s-1.12.36-1.12,1.32v5.76c0,.96.31,1.32,1.12,1.32s1.1-.37,1.1-1.32v-.66h2.25v.57c0,1.12-.37,1.95-1.1,2.48-.59.41-1.34.61-2.25.61s-1.68-.2-2.27-.61c-.74-.53-1.12-1.39-1.12-2.48v-5.6c0-1.09.39-1.95,1.12-2.48.58-.41,1.35-.62,2.27-.62s1.66.2,2.24.61c.73.53,1.1,1.36,1.1,2.48Zm-11.65-3.09c-.56,0-1.05.37-1.21.91l-3.17,10.75h2.15l.51-1.85h3.46l.5,1.85h2.15l-3.17-10.75c-.16-.54-.65-.91-1.21-.91Zm-1.27,8.11l1.22-4.46.05-.26h.01l.05.26,1.21,4.46h-2.54Z"/><path class="cls-2" d="m55.75,4.45h0c-1.73-.08-3.39.66-4.65,2.1-1.69,1.93-2.56,4.98-2.12,7.43.41,2.27,2.03,3.72,4.21,3.76.17,0,.34,0,.51-.01,1.63-.11,3.18-.89,4.3-2.19,1.48-1.72,2.29-4.1,2.11-6.21-.24-2.8-1.99-4.75-4.36-4.87Z"/><path class="cls-2" d="m73.42,7.74c-.55-.68-1.32-1.01-2.07-.87-.2.04-.38.1-.55.19.08-.91.08-1.69-.06-2.19-.45-1.64-1.95-2.57-3.19-2.89-1.22-.31-2.27-.11-2.91.54-.02.03-.05.05-.07.08-.66-.55-1.55-.9-2.67-1.04-1.59-.19-2.31.63-2.54.99-.4.62-.43,1.41-.09,2.07.04.48-.29,1.84-.5,2.75-.53,2.23-1.07,4.54-.34,6.14.28.62.68,1.12,1.17,1.48-1.1,1.33-1.63,2.81-1.64,4.06-.01,1.66.85,2.97,2.31,3.51.71.26,1.4.35,2.07.31,2.65-.17,4.9-2.49,5.98-5.2.31-.79.62-1.82.87-2.72,1.72-.8,3.5-2.06,4.64-4.77.33-.78.17-1.72-.42-2.45Z"/><path class="cls-2" d="m52.02,3.99c-.1-.38-.36-.91-1.05-1.3-1.93-1.11-3.91-.31-4.75.04-.51.21-1.86.76-2.45.49-.12-.06-.45-.21-.88-.21-.36,0-1.05.13-1.56.9-.25.37-.43.77-.56,1.18,0,0,0,0,0,0-.38,1.23-.19,2.47.53,3.41.38.5.87.86,1.42,1.03.56.18,1.17.17,1.87-.03.11-.03.21-.06.31-.1,0,.28,0,.56,0,.84,0,.24,0,.47,0,.71-1.1-.52-2.45-.46-3.52-.02-1.21.51-2.21,1.53-2.72,2.79-.55,1.35-.49,2.81.19,4,.69,1.22,1.97,2.06,3.5,2.3.55.08,1.08.11,1.59.08,2.16-.14,3.95-1.32,5.12-3.43,1.18-2.12,1.4-4.41,1.6-6.43.16-1.68.32-3.26.99-4.4.21-.36.61-1.03.39-1.87Z"/><path class="cls-1" d="m55.89,5.56c-3.68-.18-5.76,4.68-5.2,7.76.26,1.44,1.17,2.45,2.71,2.48,1.41.03,2.7-.61,3.62-1.67,1.17-1.36,1.91-3.32,1.76-5.12-.14-1.65-1.05-3.37-2.89-3.46Zm.92,5.32c-.19.61-.48,1.18-.75,1.57-.31.46-1.11,1.14-1.7.81-.51-.28-.56-1.07-.54-1.58.04-1.04.48-2.01,1.14-2.8.45-.55,1.31-.84,1.77-.14.38.57.32,1.38.09,2.13Z"/><path class="cls-1" d="m71.94,8.38c-.58,1.76-1.17,2.65-3.29,3.63.71-3.03,1.24-6.25.99-7.19-.55-2.01-3.94-2.44-3.62-1.34.36,1.23.16,3.17-.2,5.19-.39,1.64-1.97,3.16-2.72,2.63-.74-.52.48-2.55,1.1-4.69.62-2.13.26-3.71-2.37-4.03-1.07-.13-1.24.46-1.02.8.83,1.35-1.85,7.16-.86,9.31.9,1.95,3.26,1.58,5.11-.41-.09.4-.18.78-.26,1.14-5.12,1.79-6.52,6.87-3.88,7.83,2.68.98,5.17-1.38,6.27-4.15.32-.8.7-2.04,1.06-3.44,2.11-.85,3.67-1.95,4.7-4.4.27-.65-.75-1.64-1-.9Zm-10.42,11.1c-.62-.05-.27-3.11,2.93-4.48-.59,2.9-2.29,4.54-2.93,4.48Z"/><path class="cls-1" d="m42.64,5.05c.08-.27.21-.53.37-.77.06-.09.14-.18.25-.18.06,0,.12.03.18.05,1.16.54,2.66,0,3.75-.45,1.08-.44,2.24-.76,3.33-.13.48.28.31.57.08.97-1.76,2.98-.63,7.31-2.61,10.86-1.3,2.33-3.23,2.83-5.06,2.55-2.16-.33-3.22-2.19-2.44-4.1.33-.81.98-1.55,1.86-1.92,1-.42,2.3-.28,2.88.55.37.52.39,1.28.15,1.89-.25.63-.92,1.35-1.72,1.3.75.3,1.63-.15,2.1-.76.59-.75.82-1.48.94-2.26.43-2.82-.42-5.99,1.24-7.32-.96.05-1.37.7-1.97,1.26-.44.41-.86.69-1.47.86-.31.09-.65.14-.96.04-.26-.08-.47-.26-.62-.47-.43-.57-.48-1.3-.27-1.97Z"/><path d="m74.81,0c-1.42,0-2.57,1.17-2.56,2.59,0,1.42,1.17,2.57,2.59,2.56,1.42,0,2.57-1.17,2.56-2.59,0-1.42-1.17-2.57-2.59-2.56Zm.03,4.84c-1.25,0-2.27-1-2.28-2.25,0-1.25,1-2.27,2.25-2.28,1.25,0,2.27,1,2.28,2.25,0,1.25-1,2.27-2.25,2.28Z"/><path d="m75.6,2.71c.1-.05.19-.11.27-.19.07-.08.13-.16.17-.27.04-.1.06-.22.06-.35,0-.14-.03-.27-.08-.38-.05-.11-.13-.21-.23-.29-.1-.08-.21-.14-.35-.19-.14-.04-.29-.06-.46-.06h-1.33s.02,3.11.02,3.11h.35s0-1.21,0-1.21h.89s.91,1.19.91,1.19h.43s-.96-1.26-.96-1.26c.12-.02.23-.06.34-.11Zm-1.6-.13v-1.26s.95,0,.95,0c.25,0,.45.05.59.16.14.11.21.26.21.45,0,.1-.02.19-.06.27-.04.08-.09.15-.17.2-.07.06-.15.1-.25.13-.1.03-.2.05-.32.05h-.95Z"/></svg>