<?xml version="1.0" encoding="UTF-8"?><svg id="_레이어_1" xmlns="http://www.w3.org/2000/svg" viewBox="0 0 77.9 17.73"><defs><style>.cls-1{fill:#1e1511;}.cls-2{fill:none;}.cls-3{fill:#e60012;}</style></defs><polygon class="cls-2" points="9.16 11.11 10.61 11.11 9.89 7.8 9.16 11.11"/><path class="cls-2" d="m29.96,6.11c-.67,0-1.1.49-1.1,1.26v4.66c0,.77.43,1.26,1.1,1.26s1.1-.49,1.1-1.26v-4.66c0-.77-.43-1.26-1.1-1.26Z"/><path class="cls-1" d="m26.02,4.6h-5.29c-.55,0-.55.57-.55.76s0,.76.55.76h1.66v8.01c0,.69.7.69,1,.69s1,0,1-.69V6.11h1.63c.22,0,.58-.1.58-.76s-.36-.76-.58-.76Z"/><path class="cls-1" d="m5.02,13.29H1.99v-7.93c0-.49-.36-.77-1-.77s-1,.28-1,.77v8.71c0,.41.33.74.75.74h4.28c.49,0,.49-.48.49-.76s0-.76-.49-.76Z"/><path class="cls-1" d="m30.07,4.44h-.22c-1.73,0-2.98,1.25-2.98,2.98v4.55c0,1.73,1.25,2.98,2.98,2.98h.22c2.06,0,2.98-1.64,2.98-3.27v-3.98c0-1.63-.92-3.27-2.98-3.27Zm.99,7.59c0,.77-.43,1.26-1.1,1.26s-1.1-.49-1.1-1.26v-4.66c0-.77.43-1.26,1.1-1.26s1.1.49,1.1,1.26v4.66Z"/><path class="cls-1" d="m16.85,6.12c.65,0,1.06.43,1.1,1.17v.26c.01.07.02.14.02.18.04.62.5.7.99.7.41,0,.85-.05.95-.61.02-.09.02-.19.02-.24,0-.1,0-.23,0-.29-.14-1.37-1-2.84-2.96-2.84h-.22c-1.73,0-2.98,1.25-2.98,2.98v4.56c0,1.73,1.25,2.98,2.98,2.98h.22c1.97,0,2.82-1.47,2.96-2.84,0-.06.01-.19,0-.29,0-.1,0-.18-.02-.24-.08-.39-.42-.56-.97-.56-.62,0-.94.2-.97.71,0,.02,0,.04,0,.07,0,.03,0,.06,0,.11l-.02.21c-.03.72-.46,1.16-1.1,1.16s-1.1-.49-1.1-1.26v-4.66c0-.77.43-1.26,1.1-1.26Z"/><path class="cls-1" d="m13.25,14.25c-.07-.23-.19-.67-.26-.91l-2.02-8c-.12-.48-.51-.75-1.08-.75s-.96.26-1.08.74l-1.97,7.81-.31,1.1c-.05.19,0,.31.05.38.14.19.43.19.47.19h.97c.29,0,.41-.28.43-.42l.38-1.76h2.11l.38,1.76c.03.15.17.42.49.42h.92c.06,0,.32,0,.46-.19.05-.07.11-.19.05-.38h0Zm-4.08-3.14l.72-3.32.72,3.32h-1.45Z"/><path class="cls-3" d="m45.08,6.25h-.41v6.91h.41c1.02,0,1.61-.6,1.61-1.64v-3.64c0-1.04-.59-1.64-1.61-1.64Z"/><path class="cls-3" d="m58.29,6.22h-.64v2.78h.64c.78,0,1.33-.58,1.33-1.4s-.55-1.38-1.33-1.38Z"/><path class="cls-3" d="m65.96,1.68h-19.32c-4.43,0-8.03,3.59-8.03,8.03s3.59,8.03,8.03,8.03h19.32c4.43,0,8.03-3.59,8.03-8.03s-3.59-8.03-8.03-8.03Zm-17.32,9.59c0,2.14-1.35,3.41-3.6,3.41h-1.57c-.4,0-.73-.33-.73-.73V5.46c0-.4.33-.73.73-.73h1.57c2.26,0,3.6,1.28,3.6,3.41v3.12Zm5.46-2.27c.36,0,.55.25.55.74s-.18.74-.55.74h-2.35v2.71h2.42c.21,0,.56.1.56.74s-.35.74-.56.74h-3.64c-.4,0-.72-.32-.72-.72V5.46c0-.4.32-.72.72-.72h3.64c.21,0,.56.1.56.74s-.35.74-.56.74h-2.42v2.78h2.35Zm7.36,5.33c-.18.21-.5.34-.8.34-.34,0-.73,0-.85-.46l-.94-3.73h-1.21v3.51c0,.69-.73.69-.97.69s-.97,0-.97-.69V5.46c0-.4.33-.73.73-.73h2.24c1.7,0,2.89,1.16,2.89,2.82,0,.95-.35,1.76-.99,2.28l1.05,3.9c.07.26.02.38-.16.59Zm8.42-.37c0,.48-.33.72-.97.72s-.97-.24-.97-.72v-5.08l-.64,1.76c-.15.41-.54.68-.97.68s-.82-.27-.97-.68l-.64-1.76v5.08c0,.48-.33.72-.97.72s-.97-.24-.97-.72V5.69c0-.58.44-.95,1.13-.95.47,0,.9.3,1.06.74l1.36,3.73,1.36-3.73c.16-.44.59-.74,1.06-.74.69,0,1.13.37,1.13.95v8.27Z"/><rect x="33.87" y="8.88" width="3.37" height="1.65" rx=".7" ry=".7"/><path d="m76.39,1.93c0-.6-.42-.8-.98-.8h-.89v2.77h.43v-1.12h.44l.62,1.12h.48l-.66-1.17c.34-.11.57-.37.57-.79Zm-1.03.5h-.41v-.95h.41c.39,0,.61.12.61.45s-.21.5-.61.5Z"/><path d="m75.39,0c-1.39,0-2.51,1.13-2.51,2.51s1.13,2.51,2.51,2.51,2.51-1.13,2.51-2.51-1.13-2.51-2.51-2.51Zm0,4.73c-1.23,0-2.22-1-2.22-2.22s1-2.22,2.22-2.22,2.22,1,2.22,2.22-1,2.22-2.22,2.22Z"/></svg>