<?xml version="1.0" encoding="UTF-8"?><svg id="_레이어_1" xmlns="http://www.w3.org/2000/svg" viewBox="0 0 78.63 12.35"><defs><style>.cls-1{fill:#7f6639;}</style></defs><path class="cls-1" d="m41.2,11.52c-.05-.18-.1-.38-.14-.59-.07-.38-.11-.76-.14-1.14-.02-.17-.03-.33-.05-.5-.09-.78-.2-2.5-.3-4.02-.07-1.1-.14-2.06-.17-2.42h-.79l-4.24,7.41-.03.06-.03-.06-4.14-7.41h-.98s0,.04,0,.05v.03c-.03.27-.05.55-.07.82l-.02.27-.15,1.84c-.06.69-.12,1.39-.17,2.08-.05.61-.1,1.22-.16,1.84,0,.09-.02.18-.02.27-.04.55-.09,1.12-.28,1.65-.07.2-.14.34-.21.43h1.4c0-.06-.02-.13-.03-.2-.01-.08-.02-.18-.03-.29-.02-.33,0-.66,0-.98,0-.08,0-.17,0-.25.01-.62.29-5.1.29-5.14v-.13s.07.11.07.11l3.87,6.88h.51l3.96-6.95.06-.11v.13c0,.06.28,5.7.29,5.88.01.19.02.33.02.43,0,.15-.01.29-.04.4-.02.1-.04.17-.06.22h2.06c-.03-.06-.07-.13-.11-.22-.05-.1-.09-.23-.14-.39Z"/><path class="cls-1" d="m17.01,2.82c-.09,0-.2.01-.34.02-.2,0-.4.01-.62.01h-.6c-.19.01-.32.01-.39.01h-4.11c-.08,0-.21,0-.41,0h-.62c-.22-.01-.43-.02-.62-.02-.14,0-.26,0-.34-.02h-.04s-.16,1-.16,1l.07-.02c.26-.06.54-.12.84-.17.32-.05.69-.1,1.12-.15.43-.05.92-.07,1.44-.07h.05v5.17c0,.52,0,.98-.02,1.37-.01.39-.03.73-.05,1.01-.02.28-.05.52-.08.71-.02.15-.05.28-.08.39l-.02.06h1.9l-.02-.06c-.03-.11-.06-.24-.08-.39-.03-.19-.05-.43-.07-.71-.02-.28-.04-.62-.05-1.01-.01-.38-.02-.84-.02-1.37V3.41h.05c.54,0,1.03.02,1.46.07.43.05.8.1,1.11.15.3.05.58.11.82.17l.07.02-.16-1h-.04Z"/><path class="cls-1" d="m24.51,11.34c-.34.05-.74.1-1.19.14-.45.04-.95.07-1.49.07h-.05v-4.04h.05c.3,0,.63.01.97.03.33.02.64.05.92.07.29.03.59.06.88.09h.04s.19-.92.19-.92h-.07c-.21.04-.44.07-.7.08-.26.03-.58.05-.96.07-.38.02-.8.03-1.27.03h-.05s0-3.53,0-3.53l.54-.04c.14-.01.28-.02.43-.03.15,0,.28-.01.4-.01.32,0,.61.01.86.04.24.03.46.05.63.08.16.03.31.06.45.09h.04s.3-.81.3-.81h-.07c-.14.02-.33.03-.58.04-.37.01-.81.02-1.32.03-.52,0-1.08.01-1.66.02-.56,0-1.1,0-1.63,0h-.06l.02.06c.03.11.06.24.08.39.03.19.06.43.08.71.02.28.04.62.05,1,.01.39.02.85.02,1.36v2.19c0,.52,0,.98-.02,1.37-.01.39-.03.73-.05,1.01-.02.28-.05.52-.08.71-.02.15-.05.28-.08.39l-.02.06h3.24c.07,0,.2,0,.38,0h.6c.21.01.42.02.61.03.14,0,.25.01.34.02h.04s.18-1.02.18-1.02l-.07.02c-.29.07-.6.13-.93.18Z"/><path class="cls-1" d="m50.93,7.96c-.22-.2-.49-.36-.8-.49-.32-.13-.67-.23-1.05-.28l-.23-.03.23-.06c.26-.07.5-.16.72-.28.21-.12.4-.26.55-.43.15-.17.27-.37.35-.6.08-.23.12-.49.12-.79,0-.34-.07-.66-.22-.93-.14-.27-.35-.5-.6-.69-.26-.19-.57-.33-.92-.43-.36-.1-.75-.15-1.17-.15-.47,0-.87.01-1.19.03-.32.02-.57.04-.75.04h-.34c-.12,0-.23,0-.33,0-.07,0-.14,0-.21,0h-.06s.02.06.02.06c.03.11.06.24.08.38.03.19.06.43.08.72.02.28.04.62.05,1.01.01.39.02.85.02,1.37v2.19c0,.52,0,.98-.02,1.37-.01.39-.03.72-.05,1.01-.02.28-.05.52-.08.71-.03.15-.05.28-.08.39l-.02.06h.41c.14,0,.32,0,.52.02l.64.03c.22.01.44.02.64.03.21.01.38.02.51.02,1.28,0,2.26-.23,2.9-.67.64-.44.96-1.12.96-2.02,0-.32-.06-.62-.18-.88-.12-.26-.29-.49-.51-.69Zm-3.75-.39c.19-.02.43-.03.71-.03.35,0,.66.05.93.15.27.1.49.23.67.41.18.17.31.38.4.63.09.24.13.51.13.79,0,.75-.19,1.31-.56,1.66-.37.36-.97.54-1.78.54-.1,0-.24,0-.41-.02-.17-.01-.34-.04-.49-.08h-.03s0-.04,0-.04c-.01-.1-.02-.22-.03-.36l-.02-.54c0-.23-.01-.51-.02-.84,0-.34,0-.75,0-1.25v-.94h.04c.1-.02.25-.04.45-.06Zm.16-.49c-.1,0-.19,0-.29,0-.1,0-.2-.01-.32-.03h-.04v-3.65h.04c.06-.03.14-.05.23-.07.09-.01.19-.03.31-.04.12-.01.26-.02.43-.02.26,0,.49.05.68.13.2.09.37.22.5.38.13.16.24.36.31.58.07.22.11.47.11.74,0,.65-.18,1.15-.53,1.49-.35.33-.83.5-1.43.5Z"/><path class="cls-1" d="m59.43,11.34c-.34.05-.74.1-1.19.14-.45.04-.95.07-1.49.07h-.05v-4.04h.05c.3,0,.63.01.97.03.33.02.64.05.92.07.29.03.59.06.88.09h.04s.19-.92.19-.92h-.07c-.21.04-.44.07-.7.08-.26.03-.58.05-.96.07-.38.02-.8.03-1.27.03h-.05s0-3.53,0-3.53l.54-.04c.14-.01.28-.02.43-.03.15,0,.28-.01.4-.01.32,0,.61.01.86.04.24.03.46.05.63.08.16.03.31.06.45.09h.04s.3-.81.3-.81h-.07c-.14.02-.33.03-.58.04-.37.01-.81.02-1.32.03-.52,0-1.08.01-1.66.02-.56,0-1.1,0-1.63,0h-.06l.02.06c.03.11.06.24.08.39.03.19.06.43.08.71.02.28.04.62.05,1,.01.39.02.85.02,1.36v2.19c0,.52,0,.98-.02,1.37-.01.39-.03.72-.05,1.01-.02.28-.05.52-.08.71-.03.15-.05.28-.08.39l-.02.06h3.24c.07,0,.2,0,.38,0h.6c.21.01.42.02.61.03.14,0,.25.01.34.02h.04s.18-1.02.18-1.02l-.07.02c-.28.07-.6.13-.93.18Z"/><path class="cls-1" d="m68.8,11.33c-.34.05-.75.1-1.2.14-.46.04-.96.07-1.5.07h-.05v-5.14c0-.52,0-.97.02-1.36.01-.38.03-.72.05-1,.02-.28.05-.52.07-.71.02-.15.05-.28.08-.39l.02-.06h-1.9l.02.06c.03.11.06.24.08.39.03.19.06.43.08.71.02.28.04.62.05,1,.01.39.02.85.02,1.36v2.19c0,.52,0,.98-.02,1.37-.01.39-.03.73-.05,1.01-.02.28-.05.52-.08.71-.02.15-.05.28-.08.39l-.02.06h3.28c.07,0,.2,0,.38,0h.6c.22.01.42.02.61.03.14,0,.25.01.33.02h.04s.18-1.04.18-1.04l-.07.02c-.29.07-.61.13-.95.18Z"/><path class="cls-1" d="m78.56,11.14c-.29.07-.61.13-.95.18-.34.05-.75.1-1.2.14-.46.04-.96.07-1.5.07h-.05v-7.27c0-.52,0-.97.02-1.36.01-.38.03-.72.05-1,.02-.28.05-.52.07-.71.02-.15.05-.28.08-.39l.02-.06h-1.9l.02.06c.03.11.06.24.08.39.03.19.06.43.08.71.02.28.04.62.05,1,.01.39.02.85.02,1.36v4.31c0,.52,0,.98-.02,1.37-.01.39-.03.72-.05,1.01-.02.28-.05.52-.08.71-.03.15-.05.28-.08.39l-.02.06h3.28c.07,0,.2,0,.38,0h.6c.22.01.42.02.61.03.14,0,.25.01.33.02h.04s.18-1.04.18-1.04l-.07.02Z"/><path class="cls-1" d="m6.16,8.01c-.25-.41-.56-.82-.94-1.2-.38-.38-.79-.75-1.23-1.11-.44-.35-.85-.71-1.23-1.07-.38-.36-.7-.72-.95-1.09-.26-.37-.39-.76-.39-1.17,0-.25.04-.49.12-.7.08-.21.21-.4.37-.55.16-.15.37-.28.61-.36.24-.09.52-.13.83-.13.35,0,.65.05.91.15.26.1.48.22.66.36.18.14.33.3.44.47.09.14.17.27.22.38v.03h.13l.06-1.48-.35-.14c-.15-.06-.33-.12-.54-.18-.21-.06-.44-.11-.7-.16-.26-.04-.54-.07-.85-.07-.41,0-.82.07-1.21.2-.39.13-.74.32-1.05.57-.31.25-.56.54-.74.89-.19.35-.28.74-.28,1.17s.07.79.21,1.13c.14.34.33.67.56.97.23.3.49.59.79.85.29.27.6.53.91.78.31.26.62.51.91.76.3.25.57.52.8.78.23.27.43.56.57.86.14.3.22.64.22.99,0,.26-.05.49-.15.71-.1.22-.24.41-.43.56-.18.16-.41.28-.66.37-.26.09-.55.13-.87.13-.35,0-.68-.06-.98-.17-.3-.11-.56-.26-.79-.44-.23-.18-.43-.4-.58-.64-.14-.22-.25-.45-.32-.69v-.03H.08l-.08,1.85c.11.06.23.12.37.18.21.1.45.19.72.28.27.09.56.16.88.22.32.06.65.09,1,.09.62,0,1.17-.09,1.62-.27.45-.18.82-.41,1.11-.69.29-.28.5-.61.64-.96.14-.36.21-.72.21-1.07,0-.47-.12-.92-.37-1.33Z"/></svg>