<?xml version="1.0" encoding="UTF-8"?><svg id="_레이어_1" xmlns="http://www.w3.org/2000/svg" viewBox="0 0 77.65 14.88"><defs><style>.cls-1{fill:#000b8c;}</style></defs><polygon class="cls-1" points="11.9 1.01 10.13 1.01 10.13 14.88 11.9 14.88 11.9 6.81 13.78 6.81 13.78 5.01 11.9 5.01 11.9 1.01"/><rect class="cls-1" x="25.62" y="1.01" width="1.86" height="13.86"/><path class="cls-1" d="m55.23,8.97c-.76.25-2.59.43-3.59.43h-3.79c-.15,0-.27-.12-.27-.27v-2.12h4.69c.25,0,.45-.2.45-.45V1.91h-6.96v1.48h5.16v2.18h-5.16v3.85c0,.83.68,1.45,1.51,1.45h4.2c1.3-.03,2.78-.2,3.76-.68v4.68h1.8V1.01h-1.8v7.96Z"/><path class="cls-1" d="m69.42,1.01v4.3h-1.88c-.39-1.93-2.11-3.38-4.17-3.38-2.35,0-4.25,1.88-4.25,4.2s1.9,4.2,4.25,4.2c2.06,0,3.78-1.45,4.17-3.38h1.88v7.92h1.8V1.01h-1.8Zm-6.05,7.78c-1.39,0-2.52-1.19-2.52-2.65s1.13-2.65,2.52-2.65,2.52,1.19,2.52,2.65-1.13,2.65-2.52,2.65Z"/><path class="cls-1" d="m41.83,4.63V1.09h-10.34v1.46h8.54v1.2h-8.19v1.34h8.19c0,.52-.05.95-.14,1.36h-10.28v1.34h14.24v-1.34h-2.35c.27-.46.3-1.06.32-1.81Z"/><path class="cls-1" d="m33.29,13.18v-.82h8.23c.26,0,.47-.21.47-.47v-3.21h-10.66v1.37h8.86v.99h-8.7v2.39c0,.8.65,1.45,1.45,1.45h9.21v-1.43h-8.59c-.15,0-.27-.12-.27-.27Z"/><path class="cls-1" d="m19.57,1.94c-2.35,0-4.25,1.88-4.25,4.2s1.9,4.2,4.25,4.2,4.25-1.88,4.25-4.2-1.9-4.2-4.25-4.2Zm0,6.78c-1.38,0-2.5-1.15-2.5-2.58s1.12-2.58,2.5-2.58,2.5,1.15,2.5,2.58-1.12,2.58-2.5,2.58Z"/><path class="cls-1" d="m4.3,4.52c-.93,0-1.68.75-1.68,1.67s.75,1.67,1.68,1.67,1.68-.75,1.68-1.67-.75-1.67-1.68-1.67Z"/><path class="cls-1" d="m4.3,1.94C1.93,1.94,0,3.84,0,6.19s1.93,4.25,4.3,4.25,4.3-1.9,4.3-4.25S6.68,1.94,4.3,1.94Zm0,6.77c-1.98,0-3.59-1.13-3.59-2.53s1.61-2.53,3.59-2.53,3.59,1.13,3.59,2.53-1.61,2.53-3.59,2.53Z"/><path class="cls-1" d="m75.91,2.47c.27-.09.47-.29.47-.67,0-.56-.42-.72-.86-.72h-.86v2.23h.48v-.78h.26l.53.78h.55l-.58-.84Zm-.36-.32h-.41v-.69h.41c.16,0,.35.07.35.34,0,.29-.19.35-.35.35Z"/><path class="cls-1" d="m75.46,4.37c-1.2,0-2.18-.98-2.18-2.18s.98-2.18,2.18-2.18,2.18.98,2.18,2.18-.98,2.18-2.18,2.18Zm0-3.93c-.97,0-1.75.79-1.75,1.75s.79,1.75,1.75,1.75,1.75-.78,1.75-1.75-.79-1.75-1.75-1.75Z"/></svg>