<?xml version="1.0" encoding="UTF-8"?><svg id="_레이어_1" xmlns="http://www.w3.org/2000/svg" viewBox="0 0 76.49 18.23"><defs><style>.cls-1{fill:#192a5b;}.cls-2{fill:#ea5504;}</style></defs><rect class="cls-1" y="0" width="3.9" height="18.23"/><path class="cls-1" d="m40.42,0l-3.7,14.14c-.06.23-.39.23-.46,0l-3.7-14.14h-4.05l4.77,18.23h6.42L44.47,0h-4.05Z"/><path class="cls-1" d="m27.66,10.14c-.04-2.27-1.89-4.1-4.18-4.1-1.68,0-3.12.99-3.79,2.41-.05.11-.22.11-.27,0-.66-1.43-2.11-2.41-3.79-2.41-1.38,0-2.6.67-3.36,1.69-.09.12-.27.06-.27-.09v-1.6h-3.9v12.19h3.9v-8.02h3.91v8.02h3.9v-8.02h3.95v8.02h3.9v-8.09h0Z"/><rect class="cls-1" x="45.82" y="6.07" width="3.9" height="12.16"/><circle class="cls-1" cx="47.77" cy="2.08" r="2.08" transform="translate(.81 11.08) rotate(-13.34)"/><path class="cls-1" d="m62.84,9.93v-3.9h-6.28c-.08,0-.15-.07-.15-.15v-3.55c0-.12-.14-.2-.24-.12l-4.42,3.76s-.07.09-.07.14v3.81h1.85c.15,0,.21.19.09.27-1.18.81-1.94,2.11-1.94,3.59,0,2.4,2.02,4.35,4.54,4.43h0s.07,0,.07,0c.03,0,.05,0,.08,0h0s6.48,0,6.48,0v-3.9h-6.48v-4.4h6.48Z"/><path class="cls-2" d="m8.65.08c-.77-.22-1.61.05-2.12.66-.85,1.03-.53,2.53.58,3.14h0l-.69,1.25c-.05.09.05.18.13.13l2.03-1.1c.07-.04.56-.3.63-.34h0s0,0,0,0c.28-.18.53-.43.7-.74.63-1.14.07-2.62-1.27-3Z"/><path class="cls-1" d="m72.98,14.34c-.09,0-.12-.13-.03-.16,1.63-.63,2.78-2.16,2.78-3.87,0-2.36-1.99-4.28-4.44-4.28h-6.46v3.91h6.46v3.51c0,.09-.12.12-.16.03-.55-1.23-1.81-2.07-3.26-1.99-1.7.09-3.1,1.49-3.18,3.2-.09,1.93,1.45,3.53,3.36,3.53,1.38,0,2.57-.83,3.08-2.02.03-.08.15-.05.15.03h0c0,1.1.89,1.99,1.99,1.99h3.21v-3.89h-3.51Z"/></svg>