<?xml version="1.0" encoding="utf-8"?>
<!-- Generator: Adobe Illustrator 27.8.1, SVG Export Plug-In . SVG Version: 6.00 Build 0)  -->
<svg version="1.1" id="레이어_1" xmlns="http://www.w3.org/2000/svg" xmlns:xlink="http://www.w3.org/1999/xlink" x="0px"
	 y="0px" viewBox="0 0 318 174" style="enable-background:new 0 0 318 174;" xml:space="preserve">
<style type="text/css">
	.st0{fill:#4A0400;}
	.st1{fill:#FDE4A8;}
</style>
<g>
	<g>
		<path class="st0" d="M303.42,75.41c0-3.59,2.62-6.07,5.79-6.07c3.17,0,5.79,2.48,5.79,6.07c0,3.61-2.62,6.07-5.79,6.07
			C306.04,81.47,303.42,79.02,303.42,75.41 M313.79,75.41c0-2.9-1.99-4.96-4.58-4.96c-2.59,0-4.58,2.07-4.58,4.96
			c0,2.92,1.99,4.96,4.58,4.96C311.8,80.37,313.79,78.33,313.79,75.41 M306.97,72.21h2.34c1.27,0,2.4,0.52,2.4,1.99
			c0,0.74-0.47,1.46-1.16,1.71l1.43,2.56h-1.41l-1.1-2.18h-1.24v2.18h-1.27V72.21z M309.04,75.32c0.83,0,1.32-0.36,1.32-1.05
			c0-0.61-0.33-1.02-1.27-1.02h-0.86v2.07H309.04z"/>
	</g>
	<g>
		<path class="st0" d="M92.67,96.47h-7.48V73.32c0-3.78-3.07-6.85-6.85-6.85c-3.78,0-6.85,3.07-6.85,6.85v87.97
			c0,3.78,3.07,6.85,6.85,6.85c3.78,0,6.85-3.07,6.85-6.85v-52.02h7.48c3.53,0,6.4-2.87,6.4-6.4C99.07,99.34,96.2,96.47,92.67,96.47
			z"/>
		<path class="st0" d="M32.91,73.36c-16.64,0-30.17,13.73-30.17,30.62s13.53,30.62,30.17,30.62c16.7,0,30.28-13.73,30.28-30.62
			S49.61,73.36,32.91,73.36z M49.17,103.98c0,10.07-7.29,18.25-16.26,18.25c-8.96,0-16.25-8.19-16.25-18.25s7.29-18.25,16.25-18.25
			C41.88,85.72,49.17,93.91,49.17,103.98z"/>
		<path class="st0" d="M139.2,73.36c-16.64,0-30.17,13.73-30.17,30.62s13.53,30.62,30.17,30.62c16.7,0,30.28-13.73,30.28-30.62
			S155.9,73.36,139.2,73.36z M155.45,103.98c0,10.07-7.29,18.25-16.26,18.25c-8.96,0-16.25-8.19-16.25-18.25s7.29-18.25,16.25-18.25
			C148.16,85.72,155.45,93.91,155.45,103.98z"/>
		<path class="st0" d="M187.23,66.48c-3.75,0-6.79,3.05-6.79,6.79v88.07c0,3.75,3.05,6.79,6.79,6.79c3.75,0,6.79-3.05,6.79-6.79
			V73.27C194.03,69.52,190.98,66.48,187.23,66.48z"/>
		<path class="st0" d="M286.71,66.48c-3.78,0-6.85,3.07-6.85,6.85v27.14h-9.46c-3.47,0-6.29,2.82-6.29,6.29s2.82,6.29,6.29,6.29
			h9.46v48.24c0,3.78,3.07,6.85,6.85,6.85c3.78,0,6.85-3.07,6.85-6.85V73.32C293.56,69.55,290.48,66.48,286.71,66.48z"/>
		<path class="st0" d="M262.09,73.86c-0.78-0.82-1.83-1.27-2.95-1.27h-38.41c-3.35,0-6.07,2.72-6.07,6.07
			c0,3.35,2.72,6.07,6.07,6.07h27.71c-0.56,4.95-1.82,9.97-3.75,14.96h-26.91c-3.25,0-5.9,2.65-5.9,5.9c0,3.25,2.65,5.9,5.9,5.9
			h20.61c-5.39,8.24-12.71,15.49-21.8,21.54c-1.79,1.19-2.87,3.1-2.98,5.23c-0.11,2.1,0.76,4.07,2.39,5.4
			c1.22,1.01,2.71,1.52,4.21,1.52c1.24,0,2.49-0.35,3.59-1.06c24.33-15.7,37.96-38.93,39.42-67.2
			C263.28,75.79,262.86,74.67,262.09,73.86z"/>
	</g>
</g>
<g>
	<g>
		<path class="st1" d="M126.25,21.71c-0.17,9.61-4.59,17.07-12.37,22.09c-0.66,0.42-1.52,0.35-2.12-0.14l0,0
			c-0.95-0.78-0.85-2.24,0.17-2.92c3.1-2.06,5.52-4.56,7.22-7.29h-6.99c-0.88,0-1.59-0.71-1.59-1.59l0,0c0-0.88,0.71-1.59,1.59-1.59
			h8.67c0.67-1.68,1.12-3.43,1.3-5.26h-9.04c-0.91,0-1.65-0.74-1.65-1.65l0,0c0-0.91,0.74-1.65,1.65-1.65H126.25z M133.25,51.32
			L133.25,51.32c-1.05,0-1.89-0.85-1.89-1.89V9.19c0-1.04,0.85-1.89,1.89-1.89l0,0c1.04,0,1.89,0.85,1.89,1.89v40.24
			C135.15,50.47,134.3,51.32,133.25,51.32z"/>
		<path class="st1" d="M155.31,35.43L155.31,35.43c-0.53,0.65-1.45,0.84-2.19,0.45c-2.63-1.39-4.86-3.56-5.82-5.76
			c-0.98,2.4-3.45,4.72-6.27,6.29c-0.69,0.38-1.54,0.29-2.11-0.26l0,0c-0.84-0.81-0.66-2.17,0.32-2.78
			c3.94-2.46,6.01-5.62,6.01-9.48V22.5c0-1.09,0.89-1.98,1.98-1.98l0,0c1.09,0,1.98,0.89,1.98,1.98v1.45c0,3.66,1.83,6.72,5.55,8.84
			C155.72,33.34,156,34.58,155.31,35.43z M163.1,44.94c0,3.99-3.75,7.29-8.37,7.29c-4.63,0-8.37-3.29-8.37-7.29s3.75-7.29,8.37-7.29
			C159.35,37.66,163.1,40.95,163.1,44.94z M159.17,44.94c0-2.21-2.03-4.1-4.45-4.1c-2.42,0-4.45,1.89-4.45,4.1s2.03,4.1,4.45,4.1
			C157.14,49.04,159.17,47.15,159.17,44.94z M161.97,37.45L161.97,37.45c-1.05,0-1.89-0.85-1.89-1.89v-7.29h-4.38
			c-0.93,0-1.68-0.75-1.68-1.68l0,0c0-0.93,0.75-1.68,1.68-1.68h4.38v-3.22c0-1.04,0.85-1.89,1.89-1.89l0,0
			c1.04,0,1.89,0.85,1.89,1.89v13.87C163.87,36.6,163.02,37.45,161.97,37.45z"/>
		<path class="st1" d="M182.01,24.34h-4.14c0.06,3.57,2.09,6.44,5.4,8.47c0.88,0.54,1.09,1.74,0.4,2.51l0,0
			c-0.52,0.59-1.39,0.72-2.07,0.33c-2.6-1.5-4.81-3.67-5.72-5.92c-0.93,2.41-3.36,4.88-6.09,6.44c-0.63,0.36-1.41,0.3-1.96-0.17l0,0
			c-0.86-0.74-0.74-2.08,0.21-2.7c3.5-2.3,5.61-5.34,5.7-8.97h-4.17c-0.91,0-1.65-0.74-1.65-1.65l0,0c0-0.91,0.74-1.65,1.65-1.65
			h12.44c0.91,0,1.65,0.74,1.65,1.65l0,0C183.65,23.6,182.92,24.34,182.01,24.34z M190.94,44.94c0,3.99-3.75,7.29-8.37,7.29
			c-4.62,0-8.37-3.29-8.37-7.29s3.75-7.29,8.37-7.29C187.19,37.66,190.94,40.95,190.94,44.94z M187.02,44.94
			c0-2.21-2.03-4.1-4.45-4.1c-2.42,0-4.45,1.89-4.45,4.1s2.03,4.1,4.45,4.1C184.98,49.04,187.02,47.15,187.02,44.94z M194.2,29.7
			h-2.45v5.68c0,1.04-0.85,1.89-1.89,1.89l0,0c-1.04,0-1.89-0.85-1.89-1.89v-13.7c0-1.04,0.85-1.89,1.89-1.89l0,0
			c1.05,0,1.89,0.85,1.89,1.89v4.66h2.45c0.93,0,1.68,0.75,1.68,1.68l0,0C195.88,28.95,195.13,29.7,194.2,29.7z"/>
	</g>
	<path class="st0" d="M17.82,53.74L17.82,53.74c-0.62,0-1.12-0.5-1.12-1.12v-6.64H7.43c-0.57,0-1.02-0.46-1.02-1.02l0,0
		c0-0.57,0.46-1.02,1.02-1.02h20.48c0.57,0,1.02,0.46,1.02,1.02l0,0c0,0.57-0.46,1.02-1.02,1.02h-8.98v6.64
		C18.94,53.24,18.44,53.74,17.82,53.74z M24.7,35.84c0,3.37-3.1,6.17-6.93,6.17c-3.8,0-6.9-2.78-6.9-6.17c0-3.4,3.1-6.17,6.9-6.17
		C21.61,29.67,24.7,32.45,24.7,35.84z M17.78,31.69c-2.56,0-4.66,1.86-4.66,4.15s2.05,4.18,4.66,4.18c2.61,0,4.66-1.89,4.66-4.18
		S20.37,31.69,17.78,31.69z"/>
	<path class="st0" d="M45.2,45.79c0,0.49-0.35,0.9-0.83,0.98c-1.99,0.35-4.65,0.66-7.64,0.66l-5.17,0.03V38h8.95V32.9h-7.92
		c-0.57,0-1.02-0.46-1.02-1.02l0,0c0-0.57,0.46-1.02,1.02-1.02h10.16v9.19H33.8v5.34l3.75-0.03c2.09-0.02,4.46-0.24,6.52-0.54
		C44.66,44.72,45.2,45.19,45.2,45.79L45.2,45.79z M49.25,53.82L49.25,53.82c-0.62,0-1.12-0.5-1.12-1.12V30.3
		c0-0.62,0.5-1.12,1.12-1.12l0,0c0.62,0,1.12,0.5,1.12,1.12v22.4C50.37,53.32,49.87,53.82,49.25,53.82z"/>
	<path class="st0" d="M60.44,44.52c-3.67,0-6.49-3.02-6.49-6.74c0-3.69,2.91-6.74,6.49-6.74c3.56,0,6.52,3.05,6.52,6.74
		C66.97,41.5,64,44.52,60.44,44.52z M60.44,33.2c-2.37,0-4.23,2.05-4.23,4.58c0,2.53,1.83,4.61,4.23,4.61
		c2.43,0,4.26-2.08,4.26-4.61C64.7,35.25,62.87,33.2,60.44,33.2z M71.58,53.82L71.58,53.82c-0.61,0-1.11-0.49-1.11-1.11V30.29
		c0-0.61,0.49-1.11,1.11-1.11l0,0c0.61,0,1.11,0.49,1.11,1.11V38h2.65c0.59,0,1.06,0.48,1.06,1.06l0,0c0,0.59-0.48,1.06-1.06,1.06
		h-2.65v12.59C72.68,53.32,72.19,53.82,71.58,53.82z"/>
	<path class="st0" d="M84.69,44.52c-3.66,0-6.5-3.02-6.5-6.74c0-3.69,2.91-6.74,6.5-6.74c3.56,0,6.52,3.05,6.52,6.74
		C91.21,41.5,88.25,44.52,84.69,44.52z M84.69,33.2c-2.37,0-4.23,2.05-4.23,4.58c0,2.53,1.83,4.61,4.23,4.61
		c2.43,0,4.26-2.08,4.26-4.61C88.95,35.25,87.12,33.2,84.69,33.2z M97.21,53.82L97.21,53.82c-0.62,0-1.12-0.5-1.12-1.12V30.3
		c0-0.62,0.5-1.12,1.12-1.12l0,0c0.62,0,1.12,0.5,1.12,1.12v22.4C98.33,53.32,97.83,53.82,97.21,53.82z"/>
	<path class="st0" d="M225.98,49.01c0,0.57-0.46,1.04-1.04,1.04h-19.83c-0.57,0-1.04-0.46-1.04-1.04l0,0c0-0.57,0.46-1.04,1.04-1.04
		h19.83C225.52,47.97,225.98,48.43,225.98,49.01L225.98,49.01z M222.47,32.63h-1.5l-0.19,7.98h2.18c0.55,0,1,0.45,1,1l0,0
		c0,0.55-0.45,1-1,1h-14.93c-0.55,0-1-0.45-1-1l0,0c0-0.55,0.45-1,1-1h2.26l-0.16-7.98h-1.6c-0.54,0-0.98-0.44-0.98-0.98l0,0
		c0-0.54,0.44-0.98,0.98-0.98h13.93c0.54,0,0.98,0.44,0.98,0.98l0,0C223.46,32.19,223.01,32.63,222.47,32.63z M218.74,32.63h-6.33
		l0.16,7.98h6.01L218.74,32.63z"/>
	<path class="st0" d="M245.27,43.95h-6.04v4.02h8.96c0.57,0,1.04,0.46,1.04,1.04l0,0c0,0.57-0.46,1.04-1.04,1.04h-19.83
		c-0.57,0-1.04-0.46-1.04-1.04l0,0c0-0.57,0.46-1.04,1.04-1.04h8.57v-4.02h-6.22v-7.63h12.59v-3.85h-11.59c-0.55,0-1-0.45-1-1l0,0
		c0-0.55,0.45-1,1-1h13.82v7.79h-12.59v3.69h12.32c0.55,0,1,0.45,1,1l0,0C246.26,43.51,245.82,43.95,245.27,43.95z"/>
	<path class="st0" d="M259.57,41.65L259.57,41.65c-0.34,0.34-0.86,0.41-1.27,0.16c-1.61-0.96-3.08-2.39-3.99-4.62
		c-0.89,2.37-2.71,4.06-4.47,5.15c-0.38,0.23-0.86,0.21-1.2-0.07l0,0c-0.54-0.44-0.49-1.27,0.09-1.66c2.76-1.84,4.42-4.56,4.42-7.68
		v-0.97H250c-0.55,0-1-0.45-1-1l0,0c0-0.55,0.45-1,1-1h8.55c0.54,0,0.99,0.44,0.99,0.99l0,0c0,0.54-0.44,0.98-0.98,0.99l-3.12,0.02
		v0.94c0,3.36,2.11,5.95,3.97,7.17C259.95,40.43,260.03,41.19,259.57,41.65z M267.54,53.87L267.54,53.87c-0.61,0-1.1-0.49-1.1-1.1
		v-6.04h-11.97c-0.55,0-1-0.45-1-1l0,0c0-0.55,0.45-1,1-1h14.18v8.03C268.65,53.38,268.15,53.87,267.54,53.87z M262.91,43.55
		L262.91,43.55c-0.6,0-1.08-0.48-1.08-1.08v-5.58h-3.23v-2.08h3.23v-4.1c0-0.6,0.48-1.08,1.08-1.08l0,0c0.6,0,1.08,0.48,1.08,1.08
		v11.75C263.99,43.07,263.5,43.55,262.91,43.55z M267.7,43.55L267.7,43.55c-0.6,0-1.08-0.48-1.08-1.08V30.26
		c0-0.6,0.48-1.08,1.08-1.08l0,0c0.6,0,1.08,0.48,1.08,1.08v12.21C268.78,43.07,268.3,43.55,267.7,43.55z"/>
	<path class="st0" d="M292.52,50.04h-20.46c-0.57,0-1.04-0.46-1.04-1.04l0,0c0-0.57,0.46-1.04,1.04-1.04h20.46
		c0.57,0,1.04,0.46,1.04,1.04l0,0C293.56,49.58,293.09,50.04,292.52,50.04z M288.76,38.13l-11.59,0.03v3.77h12.1
		c0.54,0,0.97,0.43,0.97,0.97v0.05c0,0.54-0.43,0.97-0.97,0.97h-14.34V30.48h13.8c0.54,0,0.97,0.43,0.97,0.97v0.05
		c0,0.54-0.43,0.97-0.97,0.97h-11.56v3.72h11.59c0.54,0,0.97,0.43,0.97,0.97l0,0C289.73,37.7,289.29,38.13,288.76,38.13z"/>
	<path class="st1" d="M125.3,14.92c-0.73-0.73-0.73-1.92,0-2.65l7.95-7.95l7.95,7.95c0.73,0.73,0.73,1.92,0,2.65
		c-0.73,0.73-1.92,0.73-2.65,0l-5.3-5.3l-5.3,5.3C127.22,15.65,126.03,15.65,125.3,14.92z"/>
</g>
</svg>
