<?xml version="1.0" encoding="UTF-8"?><svg id="_레이어_1" xmlns="http://www.w3.org/2000/svg" viewBox="0 0 79.35 17.37"><defs><style>.cls-1{fill:#e7b2ab;}</style></defs><path class="cls-1" d="m36.87,17.37c-.91,0-1.77-.17-2.57-.52-.8-.35-1.5-.82-2.1-1.43-.6-.6-1.07-1.31-1.42-2.11-.34-.8-.52-1.67-.52-2.59,0-.91.17-1.78.52-2.58.34-.8.82-1.51,1.42-2.11.6-.6,1.3-1.08,2.1-1.42.8-.35,1.66-.52,2.57-.52s1.77.17,2.57.52c.8.35,1.51.83,2.1,1.43.6.6,1.07,1.31,1.42,2.11.34.8.52,1.67.52,2.58v6.08s-2,0-2,0v-1.32c-.58.57-1.26,1.03-2.04,1.36-.8.34-1.66.52-2.57.52Zm0-11.27c-.63,0-1.23.12-1.79.36-.56.24-1.05.57-1.47,1-.42.42-.75.92-.99,1.48-.24.56-.36,1.17-.36,1.79,0,.63.12,1.23.36,1.8.24.56.57,1.06.99,1.48.42.42.91.75,1.47.99.56.24,1.16.36,1.79.36s1.23-.12,1.79-.36c.56-.24,1.06-.57,1.47-.99.42-.42.75-.92.99-1.48.24-.56.36-1.17.36-1.8,0-.63-.12-1.23-.36-1.79-.24-.56-.57-1.06-.99-1.48-.42-.42-.92-.76-1.47-.99-.56-.24-1.16-.36-1.79-.36Z"/><path class="cls-1" d="m29.22,13.7v-.63c-.9.89-1.59,1.47-2.04,1.76-.48.31-.95.47-1.38.47s-.8-.21-1.06-.63c-.26-.41-.39-.96-.38-1.66,0-.31.03-.87.09-1.68v-.03s.02-.02.02-.02c1.54-1.68,2.69-3.28,3.41-4.76.72-1.47,1.09-3.02,1.09-4.59,0-.55-.07-.99-.21-1.31-.13-.3-.29-.45-.48-.45-.03,0-.08,0-.18.04l-2.93,1.09c-1,1.92-1.85,4.04-2.55,6.3-.7,2.28-1.06,4.25-1.06,5.87,0,.02,0,.04,0,.07-.65.61-1.17,1.04-1.53,1.28-.48.31-.95.47-1.38.47s-.79-.21-1.06-.63c-.25-.41-.38-.96-.38-1.66,0-.3.03-.87.09-1.68v-.03s.02-.02.02-.02c1.54-1.68,2.69-3.28,3.41-4.76.72-1.47,1.09-3.02,1.09-4.59,0-.55-.07-.99-.21-1.31-.13-.3-.29-.45-.48-.45-.03,0-.08,0-.18.04l-2.93,1.09c-1,1.92-1.85,4.04-2.55,6.3-.51,1.67-.84,3.18-.98,4.51-.45.35-.89.69-1.27.96v-2.36c0-.91-.18-1.78-.52-2.58-.34-.8-.82-1.51-1.42-2.11-.6-.6-1.3-1.08-2.1-1.43-.8-.35-1.66-.52-2.57-.52s-1.77.17-2.57.52c-.8.35-1.5.83-2.1,1.42-.6.6-1.07,1.31-1.42,2.11C.17,8.95,0,9.82,0,10.73s.17,1.78.52,2.59c.34.8.82,1.51,1.42,2.11.6.6,1.31,1.08,2.1,1.43.8.34,1.66.52,2.57.52s1.77-.17,2.57-.52c.77-.34,1.46-.79,2.04-1.36v1.32s2,0,2,0v-2.66c.32-.25.75-.59,1.2-.95,0,.1,0,.2,0,.29,0,1.07.25,1.93.75,2.56.49.62,1.14.94,1.95.94.7,0,1.46-.23,2.24-.69.67-.39,1.45-.98,2.32-1.75.11.59.33,1.09.65,1.49.49.62,1.14.94,1.95.94.7,0,1.46-.23,2.24-.69.71-.41,1.53-1.04,2.44-1.86.26-.24.29-.53.29-.63v-.12Zm-4.46-4.07c.53-2.58,1.07-4.61,1.62-6.05.75-1.98,1.12-2.21,1.33-2.21.16,0,.3.1.4.31.09.18.14.43.14.73,0,.99-.31,2.19-.93,3.56-.61,1.37-1.42,2.62-2.41,3.73l-.2.22.06-.29Zm-7.15,0c.53-2.58,1.07-4.61,1.62-6.05.75-1.98,1.12-2.21,1.33-2.21.16,0,.3.1.4.31.09.18.14.43.14.73,0,.99-.31,2.19-.93,3.56-.61,1.37-1.42,2.62-2.41,3.73l-.2.22.06-.29Zm-6.76,2.9c-.24.57-.57,1.06-.99,1.48-.42.42-.91.75-1.47.99-.56.24-1.16.36-1.79.36s-1.23-.12-1.79-.36c-.56-.24-1.06-.57-1.47-.99-.42-.42-.75-.92-.99-1.48-.24-.56-.36-1.16-.36-1.8,0-.63.12-1.24.36-1.8.24-.56.57-1.06.99-1.48.42-.42.91-.76,1.47-1,.56-.24,1.16-.36,1.79-.36s1.23.12,1.79.36c.56.24,1.06.57,1.47.99.42.42.75.92.99,1.48.24.56.36,1.17.36,1.79,0,.63-.12,1.23-.36,1.8Z"/><path class="cls-1" d="m48.03,4.09V.73c0-.39-.31-.71-.7-.71h-1.29s0,4.06,0,4.06h-2s0,2.01,0,2.01h2s0,10.71,0,10.71h2s0-10.71,0-10.71h2.02s0-2.01,0-2.01h-2.02Z"/><path class="cls-1" d="m65.42,0h-1.27s-5.16,7.04-5.16,7.04l-5.12-7.04h-1.91s0,16.81,0,16.81h2s0-13.28,0-13.28l5.03,6.89,5.08-6.92v13.3s2,0,2,0V.7c0-.37-.28-.67-.64-.7Z"/><path class="cls-1" d="m78.72,0h-10.61s0,16.81,0,16.81h11.25s0-2.01,0-2.01h-9.25s0-5.4,0-5.4h7.91s0-2.01,0-2.01h-7.91s0-5.38,0-5.38h9.25s0-1.31,0-1.31c0-.37-.28-.67-.64-.7Z"/></svg>