<?xml version="1.0" encoding="UTF-8"?><svg id="_레이어_1" xmlns="http://www.w3.org/2000/svg" viewBox="0 0 78.42 29.28"><defs><style>.cls-1{fill:#595c3c;}</style></defs><path class="cls-1" d="m16.52,15.49l.03-.03-2.09-2.12-.03.03c-1.52,1.42-2.91,2.3-5.13,2.3-1.63,0-3.14-.66-4.23-1.85-1.07-1.18-1.66-2.76-1.66-4.48v-.05c0-1.71.59-3.29,1.67-4.46,1.09-1.19,2.59-1.84,4.22-1.84,1.41,0,2.65.41,3.89,1.3.44.34.95.52,1.44.52h0c.5,0,.91-.19,1.18-.53.26-.34.34-.79.21-1.27-.13-.47-.44-.92-.87-1.26C13.48.56,11.63,0,9.32,0,4.01,0,0,4.02,0,9.34v.05c0,2.52.93,4.86,2.62,6.59,1.71,1.74,4.04,2.7,6.57,2.7,3.02,0,5.14-.93,7.33-3.2"/><path class="cls-1" d="m19.98,7.94c-1.89,0-3.44.63-3.44,1.4s1.54,1.4,3.44,1.4,3.44-.63,3.44-1.4-1.54-1.4-3.44-1.4"/><path class="cls-1" d="m44.43,10.75c1.89,0,3.44-.63,3.44-1.4s-1.54-1.4-3.44-1.4-3.44.63-3.44,1.4,1.54,1.4,3.44,1.4"/><path class="cls-1" d="m58.07.31h-4.31s0,0,0,0c-1.14.02-2.06.74-2.06,1.62v16.44h6.37c2.71,0,5.17-.93,6.93-2.61,1.72-1.65,2.67-3.94,2.67-6.42v-.05c0-5.21-4.04-8.98-9.6-8.98m6.2,9.09c0,1.71-.6,3.24-1.69,4.32-1.12,1.11-2.68,1.7-4.51,1.7h-3.13V3.27h3.13c3.65,0,6.2,2.5,6.2,6.07v.05Z"/><path class="cls-1" d="m30.46,16.57v-7.15l9.64,9.33,2.03-1.97-8.04-7.78,6.26-6.08c.34-.34.57-.75.63-1.18.06-.43-.05-.81-.31-1.08-.54-.55-1.56-.43-2.27.26l-7.94,7.71V.31h-3.25v16.27c0,1.16.73,2.1,1.62,2.1s1.62-.94,1.62-2.1"/><path class="cls-1" d="m8.9,27.04h1.36v.94c-.34.24-.79.38-1.24.38-1.04,0-1.77-.76-1.77-1.86v-.02c0-1.01.76-1.84,1.68-1.84.67,0,1.06.21,1.46.56l.03.03.64-.77-.03-.02c-.61-.52-1.21-.73-2.07-.73-1.56,0-2.78,1.22-2.78,2.79h0c0,1.65,1.15,2.78,2.79,2.78,1.04,0,1.79-.45,2.24-.84h.01v-2.3h-2.34v.89Z"/><path class="cls-1" d="m15.92,26.9c0,.93-.46,1.44-1.3,1.44s-1.3-.54-1.3-1.48v-3.06h-1.01v3.1c0,1.51.84,2.38,2.3,2.38s2.32-.88,2.32-2.42v-3.05h-1.01v3.1Z"/><path class="cls-1" d="m20.77,23.76h-.92l-2.37,5.43h1.04l.55-1.28h2.46l.54,1.28h1.07l-2.36-5.41v-.02Zm-1.33,3.24l.85-1.99.86,1.99h-1.71Z"/><path class="cls-1" d="m28.39,25.53h0c0-.48-.16-.89-.45-1.19-.36-.36-.9-.54-1.56-.54h-2.41v5.39h1.01v-1.85h1.11l1.3,1.85h1.2l-1.45-2.03c.8-.25,1.24-.83,1.24-1.63m-2.08.9h-1.33v-1.7h1.32c.68,0,1.06.31,1.06.84v.02c0,.52-.41.85-1.06.85"/><path class="cls-1" d="m32.28,23.76h-.92l-2.37,5.43h1.04l.55-1.28h2.46l.54,1.28h1.07l-2.36-5.41v-.02Zm-1.33,3.24l.85-1.99.86,1.99h-1.71Z"/><polygon class="cls-1" points="39.18 27.4 36.39 23.8 35.47 23.8 35.47 29.19 36.47 29.19 36.47 25.49 39.34 29.19 40.18 29.19 40.18 23.8 39.18 23.8 39.18 27.4"/><polygon class="cls-1" points="41.1 24.74 42.79 24.74 42.79 29.19 43.8 29.19 43.8 24.74 45.49 24.74 45.49 23.8 41.1 23.8 41.1 24.74"/><polygon class="cls-1" points="47.42 26.93 50.08 26.93 50.08 26.02 47.42 26.02 47.42 24.71 50.42 24.71 50.42 23.8 46.41 23.8 46.41 29.19 50.46 29.19 50.46 28.28 47.42 28.28 47.42 26.93"/><polygon class="cls-1" points="52.51 26.93 55.18 26.93 55.18 26.02 52.51 26.02 52.51 24.71 55.52 24.71 55.52 23.8 51.5 23.8 51.5 29.19 55.56 29.19 55.56 28.28 52.51 28.28 52.51 26.93"/><path class="cls-1" d="m58.61,23.8h-2.02v5.39h2.02c1.66,0,2.86-1.13,2.86-2.69v-.02c0-1.55-1.2-2.68-2.86-2.68m1.81,2.71c0,1.05-.73,1.75-1.81,1.75h-1.01v-3.54h1.01c1.06,0,1.81.73,1.81,1.77h0Z"/><path class="cls-1" d="m74.45,0c-2.19,0-3.97,1.78-3.97,3.97s1.78,3.97,3.97,3.97,3.97-1.78,3.97-3.97-1.78-3.97-3.97-3.97m0,7.39c-1.89,0-3.42-1.54-3.42-3.42s1.54-3.42,3.42-3.42,3.42,1.54,3.42,3.42-1.54,3.42-3.42,3.42"/><path class="cls-1" d="m74.53,4.43h1.25c-.16.64-.64,1.03-1.26,1.03-.82,0-1.49-.67-1.49-1.49s.67-1.49,1.49-1.49c.41,0,.79.16,1.07.45.11.11.29.12.4,0,.11-.11.12-.29,0-.4-.39-.41-.92-.63-1.48-.63-1.13,0-2.06.92-2.06,2.06s.92,2.06,2.06,2.06c.62,0,1.1-.26,1.38-.76v.59h.54v-1.97h-1.91v.54Z"/></svg>