<?xml version="1.0" encoding="UTF-8"?><svg id="_레이어_1" xmlns="http://www.w3.org/2000/svg" viewBox="0 0 69.9 58.16"><defs><style>.cls-1{fill:#fff;}.cls-2{fill:#003a85;}</style></defs><path class="cls-2" d="m69.9,29.08c0-11.92-13.2-21.75-30.23-23.15L48.62.72v-.72S25.49,4.97,15.44,10.14h0C6.76,14.37,1.1,21.28,1.1,29.08c0,3.19.95,6.23,2.67,9H1.58L.06,42.29c-.1.28-.06.6.11.84.17.25.45.39.75.39h7.58c5.49,4.71,13.59,7.95,22.83,8.71l-8.94,5.22v.72s23.13-4.97,33.18-10.14h0c8.68-4.23,14.34-11.14,14.34-18.94Z"/><path class="cls-1" d="m12.07,39.44l2.25-6.19h-3.52l-2.25,6.19H1.83l-.79,2.16h10.04c7.2,0,10.57-1.2,10.57-1.2l.79-2.16s-3.71,1.2-7.9,1.2h-2.47Z"/><path class="cls-1" d="m61.63,23.9l-3.25,8.92c-.46.14-3.94,1.18-7.84,1.18h-1.55c-.68,0-1.04-.55-.79-1.24l.51-1.4h6.36l.79-2.16h-6.36l1.08-2.96h6.96l.79-2.16h-10.8l-3.23,8.88h0c-.64,1.76.27,3.19,2.03,3.19h.76c6.68,0,10.06-1.03,10.51-1.18l-1.01,2.78h3.84l5.04-13.86h-3.84Z"/><path class="cls-1" d="m20.14,27.48l-.63,1.73H6.71l-.97,2.68c7.57,0,13.06-.69,13.06-.69l-2.19,6.03h1.82c2.19-2.06,4.41-6.62,5.29-9.12l.45-1.21c.39-1.58-.51-2.81-2.14-2.81h-13.46s-.79,2.18-.79,2.18l11.58-.03c.68,0,1.04.55.79,1.24Z"/><path class="cls-1" d="m48.5,40.3c-.67,0-1.02-.54-.8-1.2l.74-2.04h-3.84l-.83,2.27c-.6,1.73.31,3.13,2.05,3.13,0,0,.01,0,.02,0h4.33c7.2,0,10.57-1.2,10.57-1.2l.79-2.16s-3.71,1.2-7.9,1.2h-5.14Z"/><path class="cls-1" d="m39.44,29.21h-2.15c1.21-3.59-.61-5.58-3.75-5.58s-6.54,2.07-7.89,5.78l-1.66,4.56c-1.35,3.72.48,5.78,3.68,5.78s6.54-2.07,7.89-5.78l.95-2.6h2.14l-4.04,11.1h3.84l6.76-18.56h-3.84l-1.93,5.3Zm-7.7,5.99c-.48,1.33-1.95,2.4-3.28,2.4s-2.01-1.08-1.53-2.4l2.55-7c.48-1.33,1.95-2.4,3.28-2.4s2.01,1.08,1.53,2.4l-2.55,7Z"/><path class="cls-1" d="m14.14,17.13h3.94c.02-.12.05-.25.08-.38.02-.13.04-.27.07-.41.01-.13.03-.27.04-.4s.02-.25.02-.37c0-.13-.02-.23-.06-.27-.05-.04-.13-.06-.25-.06h-3.48v-.75h4.03c.27,0,.46.06.57.17.1.12.16.31.16.58,0,.09,0,.2-.02.35-.01.15-.03.31-.05.48-.02.17-.05.35-.08.54-.04.19-.08.36-.12.52h.61v.39c0,.14-.02.23-.07.28-.05.05-.14.08-.27.08h-5.1v-.75Zm5.11,2.64v.39c0,.13-.02.22-.07.28-.05.05-.14.08-.27.08h-3.73c-.27,0-.46-.06-.56-.17-.11-.12-.16-.31-.16-.58v-1.35h.96v1.09c0,.11.01.18.05.22.03.03.1.05.2.05h3.58Z"/><path class="cls-1" d="m19.99,17.4h5.44v.39c0,.14-.02.23-.07.28-.05.05-.14.08-.27.08h-.75v.39h.76v1.61c0,.13-.02.22-.07.28-.05.05-.14.08-.27.08h-.62v-1.22h-3.83v-.75h.75v-.39h-1.08v-.75Zm5.11-1.66c0,.25-.04.45-.11.62-.08.16-.18.29-.3.38-.13.09-.28.16-.45.19-.18.04-.38.06-.58.06h-1.89c-.21,0-.4-.02-.57-.06-.18-.03-.33-.1-.46-.19-.13-.09-.23-.22-.3-.38-.08-.16-.11-.36-.11-.62s.04-.45.11-.62c.07-.16.17-.29.3-.38.13-.09.28-.16.46-.2.17-.03.36-.05.57-.05h1.89c.2,0,.4.02.58.05.17.04.32.11.45.2.13.09.23.22.3.38.07.17.11.37.11.62Zm-.95,0c0-.05-.01-.11-.02-.17-.02-.05-.05-.11-.09-.16-.04-.04-.1-.08-.16-.11-.07-.03-.14-.05-.23-.05h-1.89c-.1,0-.17.02-.23.05-.07.03-.12.07-.16.11-.04.05-.07.11-.08.16-.02.06-.03.12-.03.17,0,.06,0,.12.03.17.01.06.04.11.08.16.04.05.09.09.16.12.06.03.13.05.23.05h1.89c.08,0,.16-.01.23-.05.06-.03.11-.07.16-.12.04-.05.07-.1.09-.16.01-.05.02-.11.02-.17Zm-2.19,2.82h1.48v-.39h-1.48v.39Z"/><path class="cls-1" d="m30.06,18.85v-2.34h-1.09c-.02.21-.05.43-.09.63-.04.21-.09.4-.14.58-.04.11-.08.17-.14.19-.07.03-.14.03-.21,0l-.59-.18c.04-.12.07-.26.1-.43.03-.16.06-.33.09-.53.02-.19.05-.38.07-.59.01-.2.02-.41.02-.62,0-.15-.02-.24-.06-.28-.04-.03-.13-.05-.25-.05h-1.92v-.75h2.47c.27,0,.46.06.57.17.1.12.16.31.16.58v.25c0,.09-.01.18-.01.27h1.03v-1.28h.96v4.01c0,.13-.02.22-.07.27-.05.06-.14.09-.27.09h-.62Zm1.07.92v.39c0,.13-.02.22-.07.28-.05.05-.14.08-.27.08h-4.1c-.27,0-.46-.06-.56-.17-.11-.12-.16-.31-.16-.58v-1.48h.96v1.22c0,.11.01.18.05.22.03.03.1.05.2.05h3.95Z"/><path class="cls-1" d="m33.66,17.72c.04-.12.07-.26.1-.43.03-.16.06-.33.09-.53.02-.19.05-.38.07-.59.01-.2.02-.41.02-.62,0-.15-.02-.24-.06-.28-.04-.03-.13-.05-.25-.05h-1.92v-.75h2.47c.27,0,.46.06.57.17.1.12.16.31.16.58,0,.19,0,.38-.02.59-.01.21-.03.43-.05.65-.02.23-.05.44-.09.65-.04.21-.09.41-.14.59-.04.11-.08.17-.14.19-.07.03-.14.03-.22,0l-.59-.18Zm3,1.64c0,.23-.04.43-.11.58-.08.15-.18.26-.3.35-.13.08-.27.14-.44.17-.17.03-.33.05-.51.05h-2.15c-.18,0-.35-.02-.51-.05-.17-.03-.31-.09-.43-.17-.13-.09-.23-.2-.3-.35-.08-.15-.11-.35-.11-.58s.04-.43.11-.58c.07-.15.17-.26.3-.35.12-.08.26-.14.43-.17.16-.03.33-.05.51-.05h2.15c.18,0,.35.02.51.05.16.03.3.09.44.17.12.09.22.21.3.35.07.15.11.35.11.58Zm-3.86,0c0,.16.04.27.13.32.08.05.2.07.35.07h1.91c.15,0,.27-.03.35-.07.08-.05.13-.16.13-.32s-.04-.27-.13-.33c-.08-.05-.2-.07-.35-.07h-1.91c-.16,0-.27.03-.35.07-.08.05-.13.17-.13.33Zm3.71-2.84v.99c0,.13-.02.22-.07.27-.05.06-.14.09-.27.09h-.62v-3.4h.96v1.3h.75v.39c0,.13-.02.22-.07.27-.05.06-.14.09-.27.09h-.42Z"/><path class="cls-1" d="m42.96,18.84v-1.62c-.53.2-1.04.35-1.55.45-.51.11-1.06.15-1.64.15-.21,0-.38-.05-.49-.17-.11-.11-.17-.3-.17-.56v-2.61h3.19v.39c0,.14-.02.23-.07.28-.05.05-.14.08-.27.08h-1.89v1.46c0,.11.02.19.06.23.04.04.1.06.19.06.2,0,.41-.01.64-.05.23-.03.46-.07.7-.13.23-.05.46-.11.69-.17.22-.06.42-.13.62-.2v-1.95h.96v1.64h.75v.39c0,.13-.02.22-.07.27-.05.06-.14.09-.27.09h-.42v1.61c0,.13-.02.22-.07.27-.05.06-.14.09-.27.09h-.62Zm1.07.93v.39c0,.13-.02.22-.07.28-.05.05-.14.08-.27.08h-3.74c-.27,0-.46-.06-.56-.17-.11-.12-.16-.31-.16-.58v-1.48h.96v1.22c0,.11.01.18.05.22.03.03.1.05.2.05h3.6Z"/><path class="cls-1" d="m47.54,14.48v3.12c0,.11-.02.17-.05.21-.04.04-.11.06-.21.06h-.63v-.28c-.19.09-.38.16-.56.21-.19.05-.39.08-.62.08-.18,0-.3-.04-.38-.13-.08-.08-.13-.23-.13-.43v-2.84h.9v.96h.79v-.96h.9Zm-2.34,3.73h4.95v1.95c0,.13-.02.22-.07.28-.05.05-.14.08-.27.08h-.62v-1.56h-4v-.75Zm.88-1.18c.11,0,.2,0,.3-.03.09-.02.17-.05.26-.09v-.73h-.79v.6c0,.11.02.17.07.2.04.04.1.05.17.05Zm3.15.85v-1.38h-.37v1.02c0,.13-.02.22-.07.27-.05.06-.14.09-.27.09h-.58v-3.4h.91v1.28h.37v-1.28h.91v3.04c0,.13-.02.22-.07.27-.05.06-.14.09-.27.09h-.58Z"/><path class="cls-1" d="m50.71,14.48h3.45v.39c0,.14-.02.23-.07.28-.05.05-.14.08-.27.08h-.89c.05.43.17.78.36,1.02.19.25.47.43.85.52v.84c-.4-.05-.74-.16-1.02-.34-.28-.17-.51-.42-.7-.73-.2.31-.43.55-.7.72-.28.18-.62.29-1.02.35v-.84c.37-.09.66-.27.85-.52.19-.24.31-.58.36-1.02h-1.21v-.75Zm.95,6.04c-.27,0-.46-.06-.56-.17-.11-.12-.16-.31-.16-.58v-.9h4.08v-.27h-4.08v-.7h5.04v1.66h-4.08v.26h4.08v.42c0,.1-.02.17-.05.21-.04.04-.1.06-.2.06h-4.07Zm3.36-2.9v-3.14h.96v2.77c0,.13-.02.22-.07.27-.05.06-.14.09-.27.09h-.62Z"/></svg>