<?xml version="1.0" encoding="UTF-8"?><svg id="_레이어_1" xmlns="http://www.w3.org/2000/svg" viewBox="0 0 76.38 37.91"><defs><style>.cls-1{fill:#f29600;}.cls-2{fill:#009c95;}.cls-3{fill:#af61a2;}.cls-4{fill:#829866;}.cls-5{fill:#63a5da;}.cls-6{fill:#e24a51;}</style></defs><rect class="cls-2" x="75.81" y="31.37" width=".41" height="3.72"/><path class="cls-2" d="m76.22,35.17h-.41s-.08-.03-.08-.08v-3.72s.03-.08.08-.08h.41s.08.03.08.08v3.72s-.03.08-.08.08Zm-.33-.16h.25v-3.56h-.25v3.56Z"/><path class="cls-2" d="m54.15,35.21v-1.36h1.51v-.34h-1.51v-1.7h1.88v-.34h-2.29v3.79c0,.65.26.96.98.96h1.36v-.34h-1.27c-.46,0-.67-.16-.67-.66Z"/><path class="cls-2" d="m56.09,36.28h-1.36c-.73,0-1.06-.32-1.06-1.03v-3.79s.03-.08.08-.08h2.29s.08.03.08.08v.34s-.03.08-.08.08h-1.8v1.55h1.44s.08.03.08.08v.34s-.03.08-.08.08h-1.44v1.29c0,.43.15.58.59.58h1.27s.08.03.08.08v.34s-.03.08-.08.08Zm-2.27-4.75v3.72c0,.63.25.88.91.88h1.29v-.19h-1.19c-.52,0-.75-.22-.75-.74v-1.36s.03-.08.08-.08h1.44v-.19h-1.44s-.08-.03-.08-.08v-1.7s.03-.08.08-.08h1.8v-.19h-2.13Z"/><rect class="cls-2" x="58.12" y="31.43" width=".41" height="4.93"/><path class="cls-2" d="m58.53,36.44h-.41s-.08-.03-.08-.08v-4.93s.03-.08.08-.08h.41s.08.03.08.08v4.93s-.03.08-.08.08Zm-.33-.16h.25v-4.78h-.25v4.78Z"/><polygon class="cls-2" points="56.89 33.43 56.06 33.43 56.06 33.77 56.89 33.77 56.89 36.36 57.3 36.36 57.3 31.43 56.89 31.43 56.89 33.43"/><path class="cls-2" d="m57.3,36.44h-.41s-.08-.03-.08-.08v-2.51h-.75s-.08-.03-.08-.08v-.34s.03-.08.08-.08h.75v-1.92s.03-.08.08-.08h.41s.08.03.08.08v4.93s-.03.08-.08.08Zm-.33-.16h.25v-4.78h-.25v1.92s-.03.08-.08.08h-.75v.19h.75s.08.03.08.08v2.51Z"/><rect class="cls-2" x="63.89" y="31.43" width=".41" height="4.93"/><path class="cls-2" d="m64.3,36.44h-.41s-.08-.03-.08-.08v-4.93s.03-.08.08-.08h.41s.08.03.08.08v4.93s-.03.08-.08.08Zm-.33-.16h.25v-4.78h-.25v4.78Z"/><path class="cls-2" d="m61.54,31.35c-.77,0-1.56.42-1.56,1.51v1.92c0,1.09.79,1.51,1.55,1.51s1.56-.42,1.56-1.51v-1.92c0-1.09-.79-1.51-1.55-1.51Zm1.15,3.44c0,.82-.56,1.17-1.15,1.17s-1.15-.35-1.15-1.17v-1.93c0-.82.56-1.17,1.15-1.17s1.15.35,1.15,1.17v1.93Z"/><path class="cls-2" d="m61.53,36.38c-.75,0-1.63-.42-1.63-1.59v-1.92c0-1.17.88-1.59,1.64-1.59s1.63.42,1.63,1.59v1.92c0,1.17-.88,1.59-1.64,1.59Zm0-4.95c-.72,0-1.48.38-1.48,1.44v1.92c0,1.06.76,1.44,1.48,1.44s1.48-.38,1.48-1.44v-1.92c0-1.06-.76-1.44-1.48-1.44Zm0,4.61c-.56,0-1.22-.33-1.22-1.25v-1.93c0-.92.66-1.25,1.23-1.25s1.22.33,1.22,1.25v1.93c0,.92-.66,1.25-1.23,1.25Zm0-4.28c-.52,0-1.07.29-1.07,1.1v1.93c0,.81.55,1.1,1.07,1.1s1.07-.29,1.07-1.1v-1.93c0-.81-.55-1.1-1.07-1.1Z"/><rect class="cls-2" x="65.72" y="35.8" width="5.02" height=".34"/><path class="cls-2" d="m70.74,36.22h-5.02s-.08-.03-.08-.08v-.34s.03-.08.08-.08h5.02s.08.03.08.08v.34s-.03.08-.08.08Zm-4.94-.16h4.86v-.19h-4.86v.19Z"/><path class="cls-2" d="m67.23,32.37c.16-.44.36-.68,1-.68s.84.23,1.01.68l.85,2.28h.44l-.86-2.32c-.23-.64-.57-.98-1.43-.98s-1.19.35-1.42.98l-.86,2.32h.44l.85-2.28Z"/><path class="cls-2" d="m70.52,34.73h-.44s-.06-.02-.07-.05l-.85-2.28c-.15-.41-.34-.63-.93-.63s-.77.2-.93.63c0,0,0,0,0,0l-.85,2.28s-.04.05-.07.05h-.44s-.05-.01-.06-.03c-.01-.02-.02-.05,0-.07l.86-2.32c.24-.64.57-1.03,1.5-1.03s1.27.41,1.5,1.03l.86,2.32s0,.05,0,.07c-.01.02-.04.03-.06.03Zm-.38-.16h.27l-.82-2.22c-.22-.59-.51-.93-1.36-.93s-1.13.34-1.35.93l-.82,2.22h.27l.83-2.23c.17-.46.4-.73,1.07-.73s.91.27,1.08.73l.83,2.23Zm-2.91-2.2h0,0Z"/><path class="cls-2" d="m75.01,34.29v-.34h-2.36c-.36,0-.43-.09-.43-.41v-.57h2.72v-.34h-2.72v-.85h2.72v-.34h-3.13v2.15c0,.5.17.7.79.7h2.41Z"/><path class="cls-2" d="m75.01,34.36h-2.41c-.63,0-.87-.21-.87-.78v-2.15s.03-.08.08-.08h3.13s.08.03.08.08v.34s-.03.08-.08.08h-2.64v.7h2.64s.08.03.08.08v.34s-.03.08-.08.08h-2.64v.49c0,.27.03.33.35.33h2.36s.08.03.08.08v.34s-.03.08-.08.08Zm-3.12-2.85v2.07c0,.42.11.63.71.63h2.34v-.19h-2.29c-.38,0-.51-.12-.51-.49v-.57s.03-.08.08-.08h2.64v-.19h-2.64s-.08-.03-.08-.08v-.85s.03-.08.08-.08h2.64v-.19h-2.97Z"/><path class="cls-2" d="m73.21,36c-.4,0-.54-.12-.54-.49v-.78h-.41v.91c0,.55.36.7.89.7h3.15v-.34h-3.09Z"/><path class="cls-2" d="m76.3,36.42h-3.15c-.41,0-.97-.08-.97-.78v-.91s.03-.08.08-.08h.41s.08.03.08.08v.78c0,.32.1.41.46.41h3.09s.08.03.08.08v.34s-.03.08-.08.08Zm-3.96-1.61v.83c0,.44.23.63.81.63h3.07v-.19h-3.01c-.44,0-.61-.16-.61-.56v-.7h-.25Z"/><path class="cls-6" d="m60.92,5.41h0c-.39.36-.92.08-1.37-.42l-2.49-2.4c-.46-.5-.51-1.2-.12-1.56h0c.39-.36,1.08-.24,1.54.26l2.16,2.7c.46.5.68,1.05.29,1.41Z"/><path class="cls-3" d="m60.58,7.01h0c.22.48-.2.9-.82,1.18l-3.05,1.63c-.62.28-1.3.11-1.52-.37h0c-.22-.48.11-1.1.73-1.38l3.24-1.22c.62-.28,1.21-.32,1.43.16Z"/><path class="cls-4" d="m62,7.82h0c.52-.06.79.47.87,1.14l.6,3.41c.07.67-.29,1.27-.82,1.33h0c-.52.06-1.02-.45-1.09-1.12l-.16-3.46c-.07-.67.07-1.25.59-1.31Z"/><path class="cls-5" d="m63.21,6.73h0c.11-.52.69-.61,1.36-.47l3.43.48c.66.14,1.12.67,1.01,1.19h0c-.11.52-.74.83-1.4.69l-3.33-.92c-.66-.14-1.16-.45-1.06-.97Z"/><path class="cls-1" d="m62.54,5.24h0c-.46-.26-.36-.85-.03-1.43l1.51-3.11c.34-.59.99-.86,1.44-.6h0c.46.26.56.96.22,1.55l-1.91,2.89c-.34.59-.79.97-1.25.71Z"/><path class="cls-2" d="m46.4,24.89c0-.72-.58-1.31-1.3-1.32h0s-.38,0-.38,0c-1.54,0-2.79-1.25-2.79-2.79v-5.45h.6c3.14-.03,2.96-2.65,2.96-2.65h-2.19,0s-1.38,0-1.38,0v-2.37c0-.06.01-.11.01-.17,0-.74-.6-1.33-1.33-1.33s-1.3.56-1.33,1.27h0v.03s0,.03,0,.04,0,.03,0,.04v2.58c-2.88.1-2.72,2.55-2.72,2.55h2.72v5.48c0,3.01,2.44,5.45,5.45,5.45h.38c.72-.03,1.3-.61,1.3-1.33Z"/><path class="cls-2" d="m8.55,23.57h0s-.38,0-.38,0c-1.54,0-2.79-1.25-2.79-2.79v-5.45h.6c3.14-.03,2.96-2.65,2.96-2.65h-2.19,0s-1.38,0-1.38,0v-2.37c0-.06.01-.11.01-.17,0-.74-.6-1.33-1.33-1.33s-1.3.56-1.33,1.27h0v.03s0,.03,0,.04,0,.03,0,.04v2.58C-.16,12.84,0,15.29,0,15.29h2.72v5.48c0,3.01,2.44,5.45,5.45,5.45h.38c.72-.03,1.3-.61,1.3-1.33s-.58-1.31-1.3-1.32Z"/><path class="cls-2" d="m23.44,24.96s0,0,0-.01h0v-5.92c0-3.76-3.04-6.8-6.8-6.8-3.76,0-6.8,3.04-6.8,6.8,0,3.76,3.04,6.8,6.8,6.8,1.56,0,3.12-.73,4.14-1.96v1.07s0,.01,0,.02c0,.74.6,1.33,1.33,1.33s1.33-.6,1.33-1.33Zm-6.8-1.79c-2.28,0-4.14-1.85-4.14-4.14,0-2.28,1.85-4.14,4.14-4.14s4.14,1.85,4.14,4.14-1.85,4.14-4.14,4.14Z"/><path class="cls-2" d="m32.15,18.19c-.87-.18-4.77-.42-4.77-1.62,0-.86.97-1.98,2.94-1.98,1.42,0,2.46.88,2.81,1.55h0c.21.45.67.77,1.21.77.73,0,1.33-.59,1.33-1.32,0-.21-.05-.4-.14-.58,0,0,0,0,0,0-.88-1.83-3.18-3.06-5.22-3.06-2.72,0-5.58,1.68-5.58,4.62,0,2.32,1.84,3.25,3.74,3.67.77.17,4.79.48,4.79,1.48,0,.82-.9,1.98-2.94,1.98-1.36,0-2.27-.67-2.69-1.29h0c-.22-.44-.67-.75-1.2-.75-.74,0-1.34.6-1.34,1.34,0,.31.11.59.28.82,0,0,0,0,0,0,.98,1.53,2.97,2.53,4.95,2.53,2.88,0,5.58-1.79,5.58-4.62,0-2.29-1.9-3.15-3.75-3.53Z"/><path class="cls-2" d="m76.25,19.03c0-3.77-3.06-6.82-6.82-6.82-3.77,0-6.82,3.06-6.82,6.82v5.83h0s0,.02,0,.03c0,.74.6,1.34,1.34,1.34s1.34-.6,1.34-1.34c0,0,0-.02,0-.03h0v-5.83c0-2.29,1.86-4.15,4.15-4.15s4.15,1.86,4.15,4.15v5.83h0s0,.02,0,.03c0,.74.6,1.34,1.34,1.34s1.34-.6,1.34-1.34c0,0,0-.02,0-.03h0v-5.83Z"/><path class="cls-2" d="m59.78,22.98v-3.38s0-6.13,0-6.13h0c0-.71-.58-1.28-1.29-1.28s-1.3.58-1.3,1.3c0,.01,0,.02,0,.03v6.05c-.08,4.72-7.25,4.59-7.16-.14v-5.83s0-.04,0-.05,0-.04,0-.05v-.03h0c0-.71-.58-1.28-1.29-1.28s-1.3.58-1.3,1.3c0,0,0,0,0,.01v5.93c-.05,3.4,2.66,6.2,6.06,6.26,1.23.02,2.39-.32,3.36-.93-.23,1.61-1.6,2.47-3.7,2.43h-2.41s0,0,0,0c-.72,0-1.3.58-1.3,1.3s.58,1.3,1.3,1.3c.02,0,.03,0,.05,0h2.37c1.09.02,2.09-.22,2.97-.64,3.3-1.44,3.67-4.59,3.64-6.15Z"/><path class="cls-2" d="m6.2,31.89s.04.07.04.12-.01.09-.04.12c-.03.03-.07.04-.11.04h-1.43v4.15c0,.05-.02.09-.05.13-.03.03-.07.05-.12.05s-.09-.02-.12-.05c-.03-.03-.05-.08-.05-.13v-4.15h-1.43s-.08-.01-.11-.04c-.03-.03-.04-.07-.04-.12s.01-.09.04-.12c.03-.03.07-.04.11-.04h3.2s.08.01.11.04Z"/><path class="cls-2" d="m8.65,33.43c.24.14.43.34.57.6.14.25.21.54.21.85v1.45c0,.05-.02.09-.05.13-.03.03-.07.05-.12.05-.05,0-.09-.02-.12-.05-.03-.03-.05-.08-.05-.13v-.46c-.12.21-.3.38-.51.5-.22.12-.46.18-.73.18-.3,0-.57-.07-.81-.22s-.43-.34-.57-.6c-.14-.25-.21-.54-.21-.85s.07-.6.21-.85c.14-.25.33-.45.57-.6s.51-.22.81-.22.56.07.8.22Zm-.17,2.61c.19-.12.34-.27.44-.48.11-.2.16-.43.16-.68s-.05-.48-.16-.68c-.11-.2-.26-.36-.44-.48-.19-.12-.4-.18-.63-.18s-.45.06-.63.18c-.19.12-.34.28-.45.48-.11.2-.16.43-.16.68s.05.48.16.68c.11.2.26.36.45.48.19.12.4.17.63.17s.44-.06.63-.17Z"/><path class="cls-2" d="m11.09,36.41c-.21-.08-.38-.21-.51-.37-.03-.03-.04-.07-.04-.11,0-.06.02-.1.07-.14.02-.02.05-.03.1-.03.05,0,.1.02.13.07.19.24.49.36.91.36.3,0,.52-.06.66-.17s.21-.25.21-.43c0-.31-.29-.51-.87-.6-.37-.06-.64-.16-.83-.32-.19-.15-.28-.34-.28-.56,0-.29.1-.52.3-.68.2-.16.46-.24.79-.24.48,0,.84.18,1.08.54.02.03.03.06.03.1,0,.06-.03.1-.09.14-.04.02-.07.02-.08.02-.06,0-.1-.03-.14-.08-.19-.26-.46-.39-.81-.39-.23,0-.41.05-.55.16-.14.11-.2.24-.2.39s.07.29.2.38c.13.1.35.17.65.21.4.06.69.17.86.34s.26.36.26.6c0,.18-.06.34-.17.48-.11.14-.26.25-.44.32-.18.08-.39.11-.61.11s-.43-.04-.64-.12Z"/><path class="cls-2" d="m15.63,36.19s.05.08.05.13c0,.05-.02.09-.05.13-.03.03-.07.05-.13.05h-.13c-.21,0-.39-.05-.55-.15s-.29-.24-.38-.41c-.09-.17-.14-.37-.14-.59v-1.67h-.44s-.08-.01-.11-.04c-.03-.03-.04-.07-.04-.12s.01-.09.04-.12c.03-.03.07-.04.11-.04h.44v-.97c0-.06.02-.1.05-.13.03-.03.07-.05.12-.05.05,0,.1.02.13.05.03.03.05.08.05.13v.97h.75s.08.01.11.04.04.07.04.12-.01.09-.04.12-.07.04-.11.04h-.75v1.67c0,.23.07.42.2.56.14.14.31.22.53.22h.12c.05,0,.1.02.13.05Z"/><path class="cls-2" d="m19.35,33.39s0,.04-.02.08l-1.9,4.33c-.03.07-.08.11-.13.11-.02,0-.05,0-.08-.02-.07-.03-.11-.08-.11-.14,0-.02,0-.04.02-.08l.57-1.29s-.01-.02-.02-.04l-1.24-2.86s-.02-.06-.02-.1c0-.06.03-.11.1-.14.03-.02.06-.02.09-.02.06,0,.1.03.13.1l1.15,2.64,1.15-2.64c.03-.07.08-.11.13-.11.03,0,.05,0,.08.02.07.03.11.08.11.14Z"/><path class="cls-2" d="m22.47,36.45s-.05-.08-.05-.13v-4.29c0-.05.02-.09.05-.13.03-.03.07-.05.12-.05.05,0,.1.02.13.06l2.87,3.94v-3.82c0-.05.02-.09.05-.13.03-.03.07-.05.12-.05.05,0,.08.02.12.05.03.03.05.08.05.13v4.29c0,.05-.02.09-.05.13-.03.03-.07.05-.12.05-.05,0-.09-.02-.12-.05l-2.88-3.94v3.82c0,.05-.02.09-.05.13-.03.03-.07.05-.12.05s-.09-.02-.12-.05Z"/><path class="cls-2" d="m30.14,33.29s.05.08.05.13v2.9c0,.05-.02.09-.05.13-.03.03-.07.05-.12.05-.05,0-.09-.02-.12-.05-.03-.03-.05-.08-.05-.13v-.31c-.13.17-.28.3-.47.39-.18.09-.39.14-.61.14-.28,0-.52-.06-.74-.18-.22-.12-.39-.29-.51-.52-.12-.23-.18-.5-.18-.82v-1.6c0-.05.02-.09.05-.13.03-.03.07-.05.12-.05s.09.02.12.05c.03.03.05.08.05.13v1.6c0,.38.1.66.3.86.2.2.46.3.79.3.2,0,.38-.04.55-.12s.29-.19.39-.34c.09-.14.14-.3.14-.48v-1.82c0-.06.02-.1.05-.13.03-.03.07-.05.12-.05.05,0,.09.02.12.05Z"/><path class="cls-2" d="m33.13,36.19s.05.08.05.13c0,.05-.02.09-.05.13-.03.03-.07.05-.13.05h-.13c-.21,0-.39-.05-.55-.15s-.29-.24-.38-.41c-.09-.17-.14-.37-.14-.59v-1.67h-.44s-.08-.01-.11-.04c-.03-.03-.04-.07-.04-.12s.01-.09.04-.12c.03-.03.07-.04.11-.04h.44v-.97c0-.06.02-.1.05-.13.03-.03.07-.05.12-.05.05,0,.1.02.13.05.03.03.05.08.05.13v.97h.75s.08.01.11.04.04.07.04.12-.01.09-.04.12-.07.04-.11.04h-.75v1.67c0,.23.07.42.2.56.14.14.31.22.53.22h.12c.05,0,.1.02.13.05Z"/><path class="cls-2" d="m36.02,33.4s0,.04,0,.05c-.01.04-.03.07-.05.09s-.06.03-.1.03c-.03,0-.08,0-.13-.01-.05,0-.1-.01-.14-.01-.19,0-.36.04-.5.13-.15.08-.26.2-.35.35-.08.15-.12.31-.12.49v1.81c0,.05-.02.09-.05.13-.03.03-.07.05-.12.05-.05,0-.09-.02-.12-.05-.03-.03-.05-.08-.05-.13v-2.9c0-.06.02-.1.05-.13.03-.03.07-.05.12-.05.05,0,.09.02.12.05.03.03.05.08.05.13v.37c.11-.18.25-.33.42-.43.17-.1.35-.15.55-.15.29,0,.43.07.43.2Z"/><path class="cls-2" d="m37.24,32.48c-.05-.05-.07-.12-.07-.2,0-.09.03-.15.08-.2.05-.05.11-.07.19-.07s.13.02.18.07c.05.05.08.12.08.2,0,.08-.03.15-.08.2-.05.05-.11.08-.19.08s-.14-.03-.19-.08Zm.07,3.97s-.05-.08-.05-.13v-2.9c0-.06.02-.1.05-.13.03-.03.07-.05.12-.05.05,0,.09.02.12.05.03.03.05.08.05.13v2.9c0,.05-.02.09-.05.13-.03.03-.07.05-.12.05-.05,0-.09-.02-.12-.05Z"/><path class="cls-2" d="m40.66,36.19s.05.08.05.13c0,.05-.02.09-.05.13-.03.03-.07.05-.13.05h-.13c-.21,0-.39-.05-.55-.15s-.29-.24-.38-.41c-.09-.17-.14-.37-.14-.59v-1.67h-.44s-.08-.01-.11-.04c-.03-.03-.04-.07-.04-.12s.01-.09.04-.12c.03-.03.07-.04.11-.04h.44v-.97c0-.06.02-.1.05-.13.03-.03.07-.05.12-.05.05,0,.1.02.13.05.03.03.05.08.05.13v.97h.75s.08.01.11.04.04.07.04.12-.01.09-.04.12-.07.04-.11.04h-.75v1.67c0,.23.07.42.2.56.14.14.31.22.53.22h.12c.05,0,.1.02.13.05Z"/><path class="cls-2" d="m41.9,32.48c-.05-.05-.07-.12-.07-.2,0-.09.03-.15.08-.2.05-.05.11-.07.19-.07s.13.02.18.07c.05.05.08.12.08.2,0,.08-.03.15-.08.2-.05.05-.11.08-.19.08s-.14-.03-.19-.08Zm.07,3.97s-.05-.08-.05-.13v-2.9c0-.06.02-.1.05-.13.03-.03.07-.05.12-.05.05,0,.09.02.12.05.03.03.05.08.05.13v2.9c0,.05-.02.09-.05.13-.03.03-.07.05-.12.05-.05,0-.09-.02-.12-.05Z"/><path class="cls-2" d="m44.39,36.32c-.24-.14-.43-.34-.57-.6-.14-.25-.21-.54-.21-.85s.07-.6.21-.85c.14-.25.33-.45.57-.6s.51-.22.81-.22.56.07.8.22.43.34.57.6c.14.25.21.54.21.85s-.07.59-.21.85c-.14.25-.33.45-.57.6s-.51.22-.8.22-.57-.07-.81-.22Zm1.44-.29c.19-.12.34-.27.44-.48.11-.2.16-.43.16-.68s-.05-.48-.16-.68c-.11-.2-.26-.36-.44-.48-.19-.12-.4-.18-.63-.18s-.45.06-.63.18c-.19.12-.34.28-.45.48-.11.2-.16.43-.16.68s.05.48.16.68c.11.2.26.36.45.48.19.12.4.17.63.17s.44-.06.63-.17Z"/><path class="cls-2" d="m50.18,33.38c.22.12.39.29.51.52s.18.5.18.82v1.6c0,.05-.02.09-.05.13-.03.03-.07.05-.12.05s-.09-.02-.12-.05c-.03-.03-.05-.08-.05-.13v-1.6c0-.38-.1-.66-.3-.86-.2-.2-.46-.3-.79-.3-.2,0-.38.04-.55.12s-.29.19-.39.34c-.09.14-.14.3-.14.48v1.82c0,.05-.02.09-.05.13-.03.03-.07.05-.12.05-.05,0-.09-.02-.12-.05-.03-.03-.05-.08-.05-.13v-2.9c0-.06.02-.1.05-.13.03-.03.07-.05.12-.05.05,0,.09.02.12.05.03.03.05.08.05.13v.31c.13-.17.28-.3.47-.39.18-.09.39-.14.61-.14.28,0,.52.06.74.18Z"/></svg>