<?xml version="1.0" encoding="UTF-8"?><svg id="_레이어_1" xmlns="http://www.w3.org/2000/svg" viewBox="0 0 74.25 28"><defs><style>.cls-1{fill:#e52047;}.cls-2{fill:#2e2624;}</style></defs><path class="cls-1" d="m9.27,4.59h-1.09l.04-.42h-1l.1-.92h1l.05-.46h-1l.1-.92h1l.18-1.72h1.09l-.47,4.44Zm-.04.35l-.22,2.14h-4.04l-.05.45h4.28l-.09.86H3.77l.22-2.13h4.04l.05-.46H3.99l.09-.86h5.15ZM5.81.75h1.82l-.1.91H2.83l.1-.91h1.78l.08-.75h1.1l-.08.75Zm-2.74,2.6l.03-.25c.07-.65.75-1.19,2.05-1.19s1.87.54,1.8,1.19l-.03.25c-.07.65-.76,1.19-2.05,1.19s-1.87-.54-1.8-1.19Zm1.05-.18v.12c-.03.19.23.41.84.41s.92-.22.94-.41v-.12c.03-.19-.23-.41-.84-.41s-.92.22-.94.41Z"/><path class="cls-1" d="m15.87,2.17h.66l.21-2.02h1.05l-.53,5.1h-1.05l.22-2.12h-.66l-.19,1.78h-1.04l.49-4.65h1.04l-.2,1.92Zm-4,4.92l.04-.35c.1-.94,1.26-1.45,2.76-1.45s2.56.52,2.46,1.45l-.04.35c-.1.94-1.26,1.45-2.76,1.45s-2.56-.52-2.46-1.45Zm1.11-.26l-.02.18c-.04.4.67.65,1.46.65s1.55-.25,1.59-.65l.02-.18c.04-.4-.67-.65-1.46-.65s-1.55.24-1.59.65Zm-.81-5.8l.09-.88h1.07l-.09.88h1.29l-.1.92h-3.81l.1-.92h1.45Zm-1.48,2.78l.03-.33c.07-.69.77-1.29,1.86-1.29s1.66.6,1.59,1.29l-.03.33c-.07.69-.77,1.29-1.86,1.29s-1.66-.6-1.59-1.29Zm1-.24v.14c-.04.28.2.54.68.54s.78-.26.81-.54v-.14c.04-.28-.2-.54-.68-.54s-.78.26-.81.54Z"/><path class="cls-1" d="m18.4,4.45c2.57-1.07,3-1.41,3.1-2.37l.05-.49h-2.51l.1-.95h3.61l-.17,1.66h1.59l.23-2.16h1.1l-.61,5.8h-1.1l.28-2.7h-1.8c-.43.71-1.38,1.23-3.51,2.1l-.36-.9Zm2.28,2.81h4.2l-.1.95h-5.32l.28-2.69h1.11l-.18,1.74Z"/><path class="cls-1" d="m32.89,1.97h1.07l-.1.96h-1.07l-.21,2.03h-1.1l.51-4.82h1.1l-.19,1.82Zm-5.49,4.98l.04-.37c.1-.94,1.17-1.59,2.66-1.59s2.43.65,2.33,1.59l-.04.37c-.1.94-1.17,1.59-2.66,1.59s-2.43-.65-2.33-1.59Zm1.12-.3l-.02.23c-.04.34.45.75,1.33.75s1.45-.41,1.49-.75l.02-.23c.04-.34-.45-.75-1.33-.75s-1.45.41-1.49.75Zm-2.26-2.42c2.59-1.05,2.96-1.37,3.06-2.29l.04-.38h-2.47l.1-.94h3.57l-.15,1.42c-.15,1.39-.88,1.91-3.8,3.09l-.35-.9Z"/><path class="cls-2" d="m40.74,19.89l-.81,4.55h-1.54l.81-4.55h-1.4c-1.02,0-1.56.83-1.72,1.69l-.6,3.35c-.04.23-.03.43.04.61.06.18.18.35.34.52.18.17.37.29.58.37.21.08.46.12.76.12h5.17l1.19-6.66h-2.82Zm-13.03,3.3h-3.22l-.42,2.39h-5.97l-.38,2.11h15.04l.38-2.11h-5.84l.42-2.39Zm16.86-3.3l-1.45,8.11h2.91l1.45-8.11h-2.91ZM2.83,14.82h2.34l-.43,2.43c-.27,1.53-.13,2.43.72,2.79h-3.29l-.38,2.11h14.29l.38-2.11h-8c-.77,0-.84-.85-.66-1.88l.6-3.35h3.56l-.65,3.64h3.22l.65-3.64h2.08l.38-2.11H3.21l-.38,2.11Zm35.18,3.78h1.4l.67-3.78h1.54l-.67,3.78h6.74l1.11-6.21h-2.91l-.73,4.11h-1.01l.67-3.78h-7.18l-.75,4.2c-.15.86.09,1.69,1.11,1.69ZM0,27.68h15.91l.38-2.11H.38l-.38,2.11Zm23.39-9.22h11.92c-1.04-.18-1.67-.98-1.4-2.51l.58-3.23h-13.3l-.38,2.11h10.07l-.27,1.53h-10.07l-.74,4.17c-.16.87.45,1.62,1.73,1.62h11.28c.18-.99,1.11-1.84,2.15-2.11h-11.2c-.53,0-.61-.19-.54-.57l.18-1.01Zm40.28-5.74h-8.86l-.38,2.11h5.63l-.28,1.55c-.13.73-.39,1.49-.76,2.24h3.03c.55-1.13,1.01-2.59,1.25-3.91l.35-1.98Zm-.63,15.29h3.22l1.45-8.11h-3.22l-1.45,8.11Zm5.28-11.51l.73-4.11h-3.22l-1.11,6.21h6.24l.38-2.11h-3.02Zm-15.54,8.41l.72,1.71c2.76-1,5.82-3.66,7.79-6.72h-3.07c-1.32,1.92-3.35,4.13-5.44,5.01Zm-4.1-6.3h2.93l1.11-6.21h-2.93l-1.11,6.21Zm-1.67,9.4h2.93l1.45-8.11h-2.93l-1.45,8.11Z"/><path class="cls-2" d="m72.83,13.03c-.2,0-.38-.04-.56-.11-.17-.08-.32-.18-.45-.31-.13-.13-.23-.28-.31-.45-.07-.17-.11-.36-.11-.56s.04-.38.11-.55c.07-.17.18-.32.31-.45.13-.13.28-.23.45-.3.17-.08.36-.11.56-.11s.38.04.55.11c.17.07.32.18.45.3.13.13.23.28.3.45.07.17.11.36.11.55s-.04.38-.11.56c-.07.17-.17.32-.3.45-.13.13-.28.23-.45.31-.17.07-.36.11-.55.11Zm0-.19c.17,0,.33-.03.48-.1.15-.06.27-.15.38-.26.1-.11.19-.24.25-.39.06-.15.09-.31.09-.49s-.03-.33-.09-.48c-.06-.15-.14-.28-.25-.39-.11-.11-.23-.2-.38-.26-.15-.06-.31-.1-.48-.1s-.33.03-.48.1c-.15.06-.27.15-.38.26-.11.11-.19.24-.25.39-.06.15-.09.31-.09.48s.03.34.09.49c.06.15.14.28.25.39.11.11.23.2.38.26.15.06.31.1.48.1Zm.71-.44h-.23l-.45-.73h-.36v.73h-.19v-1.59h.69c.21,0,.36.04.44.11.08.08.12.18.12.31,0,.08-.01.14-.04.2-.03.06-.06.1-.1.13-.05.03-.1.06-.16.08-.06.02-.13.03-.2.03l.48.73Zm-.75-.89h.18c.06,0,.13,0,.18-.02.06-.02.1-.04.14-.08.04-.04.05-.1.05-.18,0-.06-.01-.11-.04-.15-.02-.04-.05-.06-.09-.08-.04-.02-.08-.03-.13-.04-.05,0-.1,0-.14,0h-.45v.56h.3Z"/></svg>